<svg id="Capa_1" enable-background="new 0 0 512 512" height="512" viewBox="0 0 512 512" width="512" xmlns="http://www.w3.org/2000/svg"><g><path d="m433 145.002c-30.169 0-33.105-.005-34.155-.005.51 8.76 1.69 51.785-22.5 71.467-8.183 6.658-22.571 13.271-44.652 6.961-15.398-4.399-22.972-4.292-26.616-3.428-2.8.665-4.144 1.899-7.617 5.372-5.827 5.827-14.633 14.633-33.646 14.633-16.26 0-38.681-8.682-53.158-50.045-6.345-18.127-9.905-40.609-9.833-45.21l-32.26-29.4c2.083-10.762 3.926-29.314-2.333-48.094-3.212-9.634-14.982-13.396-23.208-7.273-.282.21-28.548 21.017-55.022 21.017-3.979 0-7.793 1.581-10.606 4.394l-38.213 38.212-30.725 14.897c-5.172 2.507-8.456 7.749-8.456 13.497v9c0 25.916 21.084 47 47 47h36.504c3.91 4.467 8.625 10.015 11.512 16.642 40.393-12.08 80.984 18.387 80.984 60.363 0 25.924-15.861 49.095-39.833 58.588 2.998 2.925 5.719 5.392 7.833 7.329v89.078c0 8.284 6.716 15 15 15h49c8.284 0 15-6.716 15-15v-70.515l4.759-23.795c13.746 2.405 45.473 5.309 70.241 5.309 26.327 0 54.219-3.281 67.742-5.757l10.258 25.646v69.111c0 8.284 6.716 15 15 15h49c8.284 0 15-6.716 15-15v-240c0-7.722-1.607-15.074-4.493-21.749 18.396 7.063 31.493 24.903 31.493 45.755v48c0 8.284 6.716 15 15 15s15-6.716 15-15v-48c0-43.561-35.439-79-79-79zm-349 11.997c-8.284 0-15-6.716-15-15s6.716-15 15-15 15 6.716 15 15-6.716 15-15 15zm245.81 147.992c-8.284 0-15-6.716-15-15s6.716-15 15-15 15 6.716 15 15c0 8.285-6.716 15-15 15z"/><path d="m146 285.002c0-23.648-24.285-39.658-45.999-30.318 4.397 29.826 11.358 49.97 17.603 63.033.199-.04.393-.093.595-.125 16.11-2.542 27.801-16.247 27.801-32.59z"/><path d="m263.814 210.002c6.587 0 8.06-1.473 12.434-5.847 11.383-11.383 24.819-20.681 63.687-9.576 11.661 3.332 16.024-.208 17.458-1.371 10.553-8.555 12.277-35.448 11.459-47.131-.025-.363-.022-.722-.021-1.08h-137.928c2.488 21.424 13.693 65.005 32.911 65.005z"/></g></svg>