<svg height="512" viewBox="0 0 512 512" width="512" xmlns="http://www.w3.org/2000/svg"><g id="flat"><path d="m128 136h-72a8 8 0 0 0 0 16h72a8 8 0 0 0 0-16z" fill="#bbbab6"/><path d="m191.925 438.532-32-231.627a8 8 0 0 0 -7.925-6.905h-16a8 8 0 0 0 -7.883 6.639l-40 231.627a8 8 0 0 0 7.883 9.361h88a8 8 0 0 0 7.925-9.1zm-32.525-118.532h-34.62l5.526-32h24.673zm-16.66-104h2.292l2.211 16h-7.266zm-5.526 32h12.236l3.316 24h-19.7zm-31.714 183.627 16.514-95.627h39.593l13.211 95.627z" fill="#9e9e9e"/><path d="m64 392a8 8 0 0 1 -8-8v-24a8 8 0 0 1 16 0v24a8 8 0 0 1 -8 8z" fill="#bbbab6"/><path d="m152 312h-13.958a10 10 0 0 1 -8.48-15.3l30.438-48.7 93.985-54.824a4 4 0 0 1 4.03 0l93.985 54.824 30.438 48.7a10 10 0 0 1 -8.48 15.3z" fill="#dcdbd6"/><path d="m360 440h-208v-128l31.2-48 72.8-40 72.8 40 31.2 48z" fill="#81171b"/><path d="m360 440h-208v-112l37.2-56 66.8-37 66.8 37 37.2 56z" fill="#aa232e"/><path d="m240 280h32v32h-32z" fill="#961b20"/><path d="m152 392h208v48h-208z" fill="#915628"/><path d="m152 424h208v16h-208z" fill="#7a4922"/><path d="m152 392h208v6h-208z" fill="#dcdbd6"/><path d="m152 384v-32a8 8 0 0 0 -8-8h-33.442a8 8 0 0 0 -7.844 6.431l-6.714 33.569z" fill="#92d1f7"/><path d="m152 384v-32a8 8 0 0 0 -8-8h-25.442a8 8 0 0 0 -7.844 6.431l-6.714 33.569z" fill="#a6deff"/><path d="m48 392v24h104v-32h-96a8 8 0 0 0 -8 8z" fill="#5f967c"/><path d="m48 405.221h104.766v10.476h-104.766z" fill="#55876f"/><path d="m228 344h56a8 8 0 0 1 8 8v88a0 0 0 0 1 0 0h-72a0 0 0 0 1 0 0v-88a8 8 0 0 1 8-8z" fill="#961b20"/><path d="m272 320h-32a8 8 0 0 1 -8-8v-32a8 8 0 0 1 8-8h32a8 8 0 0 1 8 8v32a8 8 0 0 1 -8 8zm-24-16h16v-16h-16z" fill="#eae9e4"/><path d="m488 416a8 8 0 0 1 -8-8 8.009 8.009 0 0 0 -8-8 8 8 0 0 1 0-16 24.028 24.028 0 0 1 24 24 8 8 0 0 1 -8 8z" fill="#cdccc8"/><rect fill="#79a73a" height="96" rx="32" width="64" x="424" y="256"/><path d="m456 446.26a8 8 0 0 1 -8-8v-110.26a8 8 0 0 1 16 0v110.26a8 8 0 0 1 -8 8z" fill="#a3612d"/><path d="m360 336 48 16v10l-48-16z" fill="#cdccc8"/><path d="m360 346 48 16v78h-48z" fill="#961b20"/><path d="m208.46 145.9-55.807-9.25-4.823 15.256 50.985 24.506z" fill="#7a4922"/><path d="m166.797 80.489-26.043 50.218 13.019 9.3 39.062-40.916z" fill="#7a4922"/><path d="m91.713 99.9 39.712 40.286 12.869-9.508-26.844-49.793z" fill="#7a4922"/><path d="m86.972 177.307 50.586-25.319-5.066-15.177-55.652 10.143z" fill="#7a4922"/><path d="m159.125 205.737-8.448-55.935-15.999.129-7.552 56.062z" fill="#7a4922"/><path d="m24 128v32l32-8v-16z" fill="#7a4922"/><circle cx="352" cy="136" fill="#f4a95a" r="24"/><g fill="#ffb05e"><path d="m352 96a8 8 0 0 1 -8-8v-16a8 8 0 0 1 16 0v16a8 8 0 0 1 -8 8z"/><path d="m318.059 110.059a7.982 7.982 0 0 1 -5.658-2.343l-11.313-11.316a8 8 0 0 1 11.312-11.312l11.316 11.312a8 8 0 0 1 -5.657 13.658z"/><path d="m304 144h-16a8 8 0 0 1 0-16h16a8 8 0 0 1 0 16z"/><path d="m306.745 189.255a8 8 0 0 1 -5.657-13.657l11.312-11.314a8 8 0 0 1 11.316 11.316l-11.316 11.312a7.974 7.974 0 0 1 -5.655 2.343z"/><path d="m352 208a8 8 0 0 1 -8-8v-16a8 8 0 0 1 16 0v16a8 8 0 0 1 -8 8z"/><path d="m397.255 189.255a7.974 7.974 0 0 1 -5.657-2.343l-11.314-11.312a8 8 0 0 1 11.316-11.316l11.312 11.316a8 8 0 0 1 -5.657 13.657z"/><path d="m416 144h-16a8 8 0 0 1 0-16h16a8 8 0 0 1 0 16z"/><path d="m385.941 110.059a8 8 0 0 1 -5.657-13.659l11.316-11.312a8 8 0 0 1 11.312 11.312l-11.312 11.316a7.982 7.982 0 0 1 -5.659 2.343z"/></g><path d="m216 348v92h80v-92a4 4 0 0 0 -4-4h-72a4 4 0 0 0 -4 4zm56.248 12-16.248 19.5-16.248-19.5zm-40.248 15.7 13.59 16.3-13.59 16.3zm7.752 48.3 16.248-19.5 16.248 19.5zm40.248-15.7-13.59-16.3 13.59-16.3z" fill="#eae9e4"/><circle cx="56" cy="424" fill="#eae9e4" r="16"/><circle cx="136" cy="419" fill="#eae9e4" r="21"/><path d="m56 448a24 24 0 1 1 24-24 24.028 24.028 0 0 1 -24 24zm0-32a8 8 0 1 0 8 8 8.009 8.009 0 0 0 -8-8z" fill="#6a6c65"/><path d="m136 448a29 29 0 1 1 29-29 29.034 29.034 0 0 1 -29 29zm0-42a13 13 0 1 0 13 13 13.015 13.015 0 0 0 -13-13z" fill="#6a6c65"/><circle cx="142.613" cy="141.867" fill="#dcdbd6" r="16"/><path d="m360 346 48 16v10l-48-16z" fill="#81171b"/><path d="m408 399-11.112.346a6.255 6.255 0 0 1 -5.888-6.246v-1.518a6.8 6.8 0 0 1 6.58-6.8l2.018-.065 6.402-6.717 2-10 9 8h34.91a20.091 20.091 0 0 1 20.09 20.09v18.91l-3.968 4.808-2.032 20.192h-7l-6-26a45.535 45.535 0 0 1 -25.909.31l-1.091-.31-4 26h-9l-1-27a16.11 16.11 0 0 1 -4-10.624z" fill="#e6e5e0"/><path d="m472 396.09-12.64.57c-.19.01-.38.01-.57.01a12.23 12.23 0 0 1 -12.22-12.24v-8.43h5.34a20.084 20.084 0 0 1 20.09 20.09z" fill="#6a6c65"/><path d="m417 376v11.723a2.6 2.6 0 0 0 2.6 2.595h3.618a2.6 2.6 0 0 0 2.595-2.595 2.594 2.594 0 0 1 2.594-2.594h.642a2.594 2.594 0 0 0 2.59-2.453l.361-6.676z" fill="#6a6c65"/><path d="m431.813 398a5.186 5.186 0 0 0 -5.186 5.187v.813h-.549a5.187 5.187 0 0 0 -5.187 5.187 3.254 3.254 0 0 0 3.255 3.254h15.137a4.452 4.452 0 0 0 4.437-4.083 5.187 5.187 0 0 0 -5.12-4.358h-1.6v-.813a5.187 5.187 0 0 0 -5.187-5.187z" fill="#6a6c65"/><path d="m461.283 410.48v.049h-.7a2.584 2.584 0 0 0 -2.583 2.585 2.584 2.584 0 0 0 2.516 2.583l11.484-.697v-11h-4.238a6.48 6.48 0 0 0 -6.479 6.48z" fill="#6a6c65"/><circle cx="408.651" cy="385" fill="#6a6c65" r="2.907"/><path d="m488 448h-464a8 8 0 0 1 0-16h464a8 8 0 0 1 0 16z" fill="#79a73a"/><path d="m216 424h80v8h-80z" fill="#cdccc8"/><path d="m465.958 176.086a23.934 23.934 0 0 0 -16-8 24 24 0 0 0 -40.587 7.914h-1.371a24 24 0 0 0 -24 24 24 24 0 0 0 24 24h56a24 24 0 0 0 24-24 24 24 0 0 0 -22.042-23.914z" fill="#ecebe6"/></g></svg>