<?xml version="1.0"?>
<svg xmlns="http://www.w3.org/2000/svg" viewBox="0 0 512 512" width="512" height="512"><g id="SOLID"><path d="M454.34277,214.34326a8.97038,8.97038,0,1,0-12.68554-12.68652L427.314,216,440,228.686Z"/><path d="M141.65625,381.65723A46.31947,46.31947,0,0,0,128,414.62744V432H392V403.314l-.9707-.9707A7.94524,7.94524,0,0,0,385.37305,400H368a56.34833,56.34833,0,0,1-33.59961-11.2002l-18.221-13.6654L275.31348,416H240V380.686l35.42676-35.42688A24.22064,24.22064,0,0,1,269.678,336H248V320h21.81909c.07813-.21289.13623-.429.22095-.64062l22.50879-56.27295A23.88611,23.88611,0,0,1,314.833,248h42.81738a55.79236,55.79236,0,0,1,13.408,1.62769L392,228.686V64H120V288.05969l21.93652-24.14758a27.87641,27.87641,0,0,1,9.30933-6.75073A23.92544,23.92544,0,0,1,144,240V208a24.0275,24.0275,0,0,1,24-24h16v16H168a8.00917,8.00917,0,0,0-8,8v32a8.00917,8.00917,0,0,0,8,8h32a8.00917,8.00917,0,0,0,8-8V224h16v16a24.0275,24.0275,0,0,1-24,24H183.27979a28.19343,28.19343,0,0,1,7.52,16.18506A28.53951,28.53951,0,0,1,190.63452,288H200a24.0275,24.0275,0,0,1,24,24v32a24.0275,24.0275,0,0,1-24,24H168a23.85811,23.85811,0,0,1-13.75439-4.35022A62.63983,62.63983,0,0,1,141.65625,381.65723ZM248,80H368V96H248Zm0,32h96v16H248Zm0,72H368v16H248Zm0,32h80v16H248ZM221.65723,93.65674l-40,40-11.31446-11.31348,40-40Zm-40,144-11.31446-11.31348,40-40,11.31446,11.31348ZM200,160H168a24.0275,24.0275,0,0,1-24-24V104a24.0275,24.0275,0,0,1,24-24h16V96H168a8.00917,8.00917,0,0,0-8,8v32a8.00917,8.00917,0,0,0,8,8h32a8.00917,8.00917,0,0,0,8-8V120h16v16A24.0275,24.0275,0,0,1,200,160Z"/><path d="M200,352a8.00917,8.00917,0,0,0,8-8V312a8.00917,8.00917,0,0,0-8-8H182.4292c-7.5249,9.01807-15.89014,19.052-20.57666,24.6748A8.00373,8.00373,0,0,0,160,333.79346V344a8.00917,8.00917,0,0,0,8,8Z"/><path d="M416,227.314l-91.0918,91.0918a25.57134,25.57134,0,0,1,2.80274,1.3584l13.4978,7.71313L428.686,240Z"/><polygon points="424 267.314 409.75 281.564 424 303.956 424 267.314"/><path d="M144,337.37256v-3.5791a24.03628,24.03628,0,0,1,5.5625-15.36377c5.10156-6.12061,14.56445-17.47168,22.55664-27.04737a12.2478,12.2478,0,0,0,2.78809-9.34668,12.41769,12.41769,0,0,0-4.94532-8.56445l-.4082-.30615a11.72307,11.72307,0,0,0-15.77344,1.50439L120,311.86011V312h-.12695l-20.0293,22.05127A16.00006,16.00006,0,0,1,72,323.294V216l-6.40039,4.7998A24.11647,24.11647,0,0,0,56,240V480h56V414.62744a62.21624,62.21624,0,0,1,18.34375-44.28467A46.31947,46.31947,0,0,0,144,337.37256Z"/><path d="M291.26318,352.05066,256,387.314V400h12.68652l34.56275-34.56311-3.71607-2.787A25.69094,25.69094,0,0,1,291.26318,352.05066Z"/><path d="M408,448H128v16H416a8.00917,8.00917,0,0,0,8-8V435.31372L408,419.314Z"/><path d="M433.72266,349.03564l-35.562-55.88232-19.86645,19.86646,5.864,8.79614a22.28857,22.28857,0,0,1-29.60254,31.71582l-34.78222-19.876a9.73183,9.73183,0,0,0-11.67969,1.56445,9.70861,9.70861,0,0,0,1.03906,14.62989L344,376a40.25339,40.25339,0,0,0,24,8h17.373a23.84385,23.84385,0,0,1,16.9707,7.02979L480,468.68652v-73.373Z"/><path d="M355.6084,335.70557l6.88476,3.93408a6.28883,6.28883,0,0,0,8.35254-8.94873l-4.08886-6.13367Z"/><path d="M314.833,264a7.96217,7.96217,0,0,0-7.42871,5.02881l-22.50879,56.27344a8.05061,8.05061,0,0,0,1.82519,8.66308L356.686,264Z"/><path d="M104,48H408V212.686l16-16V40a8.00917,8.00917,0,0,0-8-8H96a8.00917,8.00917,0,0,0-8,8V323.28516l16-17.6128Z"/></g></svg>
