<svg id="Capa_1" enable-background="new 0 0 511.136 511.136" height="512" viewBox="0 0 511.136 511.136" width="512" xmlns="http://www.w3.org/2000/svg"><g><g><path d="m391.942 197.337c-24.191 47.729-64.256 46.733-105.531 44.011-4.112-.287-7.704 2.855-7.977 6.99-.273 4.133 2.856 7.704 6.99 7.977 9.366.618 19.004 1.254 28.654 1.254 28.548 0 57.154-5.574 78.801-33.662 1.889 7.67 5.228 14.74 10.017 20.642 2.802 3.452 5.434 6.604 7.755 9.384 14.762 17.676 20.356 24.388 20.943 48.024-1.583.772-3.272 1.314-5.013 1.592l-42.129 6.912c-42.33 6.954-79.888 31.221-103.653 66.818-.26-.087-.512-.186-.778-.261-18.55-5.244-36.192-11.829-52.59-19.595l.85-.85c6.64-6.641 6.641-17.447 0-24.09l-16.051-16.051c-2.93-2.928-7.678-2.928-10.607 0-2.929 2.93-2.929 7.678 0 10.607l16.051 16.05c.793.793.793 2.084 0 2.876l-42.385 42.385c-.791.793-2.084.793-2.875 0l-83.175-83.175c-.492-.492-.596-1.053-.596-1.437 0-.385.104-.945.597-1.438l42.385-42.386c.492-.492 1.053-.596 1.438-.596.384 0 .944.104 1.437.597l41.72 41.719c2.93 2.928 7.678 2.928 10.607 0 2.929-2.93 2.929-7.678 0-10.607l-7.404-7.404c2.627-2.136 5.213-4.363 7.718-6.681 15.89-14.709 35.316-21.499 62.992-22.017 4.142-.078 7.436-3.498 7.358-7.64-.077-4.094-3.419-7.359-7.496-7.359-.048 0-.096 0-.144.001-21.292.398-48.819 3.715-72.899 26.006-2.653 2.455-5.397 4.809-8.19 7.029l-23.655-23.653c-3.217-3.218-7.494-4.99-12.044-4.99-4.551 0-8.828 1.772-12.045 4.989l-7.661 7.661c-6.828-10.918-13.011-22.503-18.411-34.537-18.698-41.669-24.457-80.743-26.229-100.808l26.173.072h.021c.645 0 1.286-.083 1.909-.247l4.617-1.215v33.049c0 15.851 12.896 28.746 28.746 28.746h30.627c15.851 0 28.746-12.896 28.746-28.746v-45.83c0-15.852-12.896-28.747-28.746-28.747h-18.378c-2.777-13.498-1.363-27.777 4.066-40.53 2.741-6.439 9.033-10.652 16.029-10.734 23.104-.258 44.578 11.03 57.427 30.226 10.487 15.667 14.009 35.185 9.661 53.551-.955 4.03 1.539 8.071 5.57 9.025.581.138 1.162.204 1.734.204 3.396 0 6.475-2.324 7.291-5.774 2.528-10.676 2.851-21.667 1.139-32.322l8.77-2.309 43.864 7.124c6.068.984 11.197 4.955 13.71 10.599l7.398 16.785c5.204 11.807 13.781 21.596 24.803 28.31l10.404 6.336c1.219.742 2.564 1.096 3.895 1.096 2.53 0 5-1.281 6.412-3.6 2.155-3.538 1.033-8.152-2.504-10.307l-10.404-6.336c-8.39-5.11-14.918-12.563-18.88-21.55l-7.41-16.81c-4.588-10.307-13.941-17.533-25.021-19.33l-45.435-7.379c-1.036-.168-2.096-.116-3.111.15l-10.181 2.68c-2.286-6.479-5.368-12.701-9.242-18.488-15.495-23.149-41.26-36.886-69.081-36.886-.327 0-.657.002-.984.006-12.944.149-24.586 7.944-29.656 19.856-6.236 14.646-8.126 30.95-5.493 46.56-13.547 1.401-24.329 12.25-25.632 25.827l-7.622 2.006-28.368-.078c-2.994-4.725-8.227-7.893-14.146-7.977l-14.363-.204c-.08-.001-.159-.002-.238-.002-4.613 0-9.076 1.895-12.277 5.22-.836.869-1.568 1.823-2.195 2.836l-14.841-.04c-.007 0-.014 0-.021 0-4.133 0-7.489 3.345-7.5 7.479-.011 4.143 3.338 7.509 7.479 7.521l12.663.034c1.587 21.983 7.57 68.675 30.078 119.41 7.99 18.012 17.479 35.157 28.196 51.04-2.906 3.015-4.565 6.915-4.738 11.086-9.538-.239-19.35-1.214-29.258-2.936-4.08-.717-7.965 2.023-8.674 6.104-.71 4.081 2.022 7.965 6.104 8.674 12.329 2.145 24.543 3.229 36.357 3.229.905 0 1.809-.009 2.71-.022l80.89 80.89c3.321 3.32 7.683 4.98 12.044 4.98 4.362 0 8.725-1.661 12.045-4.98l5.527-5.527c21.258 11.381 44.437 20.867 69.028 28.251-1.893 6.826-3.334 13.816-4.278 20.848l-2.841 21.174c-.551 4.105 2.331 7.88 6.437 8.431.338.045.674.067 1.007.067 3.698 0 6.918-2.737 7.424-6.504l2.841-21.173c.933-6.951 2.398-13.857 4.354-20.568 1.722-.366 3.397-1 4.971-1.907 4.014-2.312 6.858-6.055 8.01-10.541l3.557-13.856c.841-3.278.676-6.557-.292-9.53 21.354-33.517 56.03-56.417 95.242-62.859l42.094-6.906c5.296-.844 10.378-3.02 14.694-6.291l31.107-23.578c8.234-6.222 13.15-16.1 13.15-26.423v-30.411c0-11.48-6.099-22.338-15.926-28.342l-79.182-48.217c-3.533-2.15-8.149-1.033-10.307 2.506-2.154 3.537-1.032 8.152 2.506 10.307l13.647 8.31c-3.346 6.796-5.584 13.953-6.724 21.12zm22.604 37.761c-10.308-12.703-11.366-33.16-3.01-51.044l52.657 32.065c5.389 3.292 8.736 9.245 8.736 15.535v30.411c0 5.647-2.689 11.052-7.202 14.461l-19.778 14.991c-2.323-21.489-10.453-31.237-23.783-47.199-2.402-2.877-4.886-5.851-7.62-9.22zm-298.11-127.645c0-7.58 6.166-13.747 13.746-13.747h30.627c7.58 0 13.746 6.167 13.746 13.747v45.83c0 7.58-6.166 13.746-13.746 13.746h-30.627c-7.58 0-13.746-6.166-13.746-13.746zm-81.637 8.118c-.037-.729.286-1.227.564-1.516.279-.291.775-.653 1.496-.623l14.364.204c1.059.015 1.937.856 1.999 1.915 1.036 17.504 5.842 63.557 28.037 113.021 6.163 13.734 13.304 26.917 21.232 39.261l-13.276 13.276c-9.559-14.469-18.058-30.011-25.285-46.3-23.426-52.808-28.176-100.979-29.131-119.238zm242.604 278.351-3.557 13.857c-.188.729-.687 1.11-.967 1.271-.328.188-.854.378-1.504.194-24.541-6.907-47.664-15.956-68.849-26.919l13.685-13.685c18.499 9.145 38.557 16.824 59.729 22.81 1.097.312 1.74 1.396 1.463 2.472z"/><path d="m503.636 421.882h-8.258c7.351-16.88 4.309-37.422-9.146-51.258-8.495-8.737-19.808-13.549-31.851-13.549-12.044 0-23.356 4.812-31.852 13.549l-6.493 6.678-6.493-6.678c-14.108-14.51-39.103-17.045-55.719-5.651l-1.233.846c-11.761 8.063-18.963 19.792-20.28 33.026-1.316 13.225 3.415 26.158 13.317 36.458h-11.63c-4.143 0-7.5 3.357-7.5 7.5s3.357 7.5 7.5 7.5h26.205l40.885 42.047c3.98 4.094 9.289 6.349 14.948 6.349s10.968-2.255 14.948-6.349l53.936-55.468h18.715c4.143 0 7.5-3.357 7.5-7.5s-3.357-7.5-7.499-7.5zm-147.04 3.194c-6.915-7.112-10.238-15.9-9.358-24.745.872-8.759 5.786-16.622 13.837-22.142l1.233-.846c4.475-3.068 10.006-4.551 15.593-4.551 7.75 0 15.605 2.854 20.89 8.288l11.87 12.207c1.412 1.452 3.352 2.271 5.377 2.271s3.965-.819 5.377-2.271l11.87-12.207c5.647-5.808 13.14-9.006 21.098-9.006 7.957 0 15.449 3.198 21.097 9.006 10.809 11.116 11.704 28.617 2.701 40.801h-47.553c-2.975 0-5.668 1.758-6.865 4.481l-1.828 4.157-5.573-19.322c-.822-2.851-3.247-4.948-6.186-5.353-2.936-.402-5.84.963-7.4 3.487l-16.054 25.97h-20.182zm63.635 56.817c-1.133 1.165-2.622 1.806-4.194 1.806s-3.062-.641-4.194-1.806l-30.717-31.59h9.776c2.599 0 5.013-1.346 6.38-3.557l9.355-15.134 6.622 22.958c.875 3.034 3.556 5.194 6.706 5.405.168.011.336.017.503.017 2.957 0 5.659-1.745 6.862-4.481l8.192-18.629h28.477z"/><path d="m180.42 322.363-38.572-38.571c-2.93-2.928-7.678-2.928-10.607 0-2.929 2.93-2.929 7.678 0 10.607l38.572 38.571c1.465 1.464 3.384 2.196 5.304 2.196 1.919 0 3.839-.732 5.304-2.196 2.928-2.929 2.928-7.677-.001-10.607z"/><path d="m150.669 341.508c-2.949 2.908-2.948 7.691-.039 10.641 1.467 1.489 3.403 2.234 5.34 2.234 1.902 0 3.805-.719 5.266-2.16 2.95-2.908 2.983-7.656.074-10.605l-.069-.07c-2.908-2.952-7.624-2.95-10.572-.04z"/><path d="m167.101 357.939c-2.949 2.908-2.948 7.691-.039 10.641 1.467 1.489 3.403 2.234 5.34 2.234 1.902 0 3.805-.719 5.266-2.16 2.95-2.908 2.983-7.656.074-10.605l-.069-.07c-2.908-2.951-7.624-2.949-10.572-.04z"/><path d="m279.78 137.875c-11.998 0-22.406 8.533-24.748 20.29-.81 4.062 1.828 8.011 5.891 8.82 4.064.812 8.011-1.827 8.82-5.891.949-4.763 5.17-8.22 10.037-8.22 4.866 0 9.087 3.457 10.036 8.22.711 3.568 3.843 6.036 7.348 6.036.485 0 .979-.047 1.473-.146 4.063-.81 6.7-4.759 5.891-8.82-2.342-11.756-12.751-20.289-24.748-20.289z"/><path d="m451.204 229.875c2.068-3.589.836-8.175-2.753-10.243l-7.816-4.505c-3.59-2.067-8.175-.837-10.243 2.753-2.068 3.589-.836 8.175 2.753 10.243l7.816 4.505c1.18.68 2.468 1.003 3.738 1.003 2.594 0 5.116-1.347 6.505-3.756z"/></g></g></svg>