<svg id="_x33_0" enable-background="new 0 0 62.516 44" height="512" viewBox="0 0 62.516 44" width="512" xmlns="http://www.w3.org/2000/svg"><g><g><g><path d="m5.516 37h24v4h-24z" fill="#dfb28b"/></g><g><path d="m33.516 37h24v4h-24z" fill="#dfb28b"/></g><g><path d="m57.516 29v4h-24v-4h5z" fill="#dfb28b"/></g><g><path d="m29.516 29v4h-24v-4h8.33 10.12z" fill="#dfb28b"/></g><g><path d="m61.516 28v14c0 .55-.45 1-1 1h-2c-.55 0-1-.45-1-1v-1-4-4-4-1c0-.55.45-1 1-1h1 1c.55 0 1 .45 1 1z" fill="#d3a06c"/></g><g><path d="m33.516 41v1c0 .55-.45 1-1 1h-2c-.55 0-1-.45-1-1v-1-4-4-4-1c0-.55.45-1 1-1h1 1c.55 0 1 .45 1 1v1 4 4z" fill="#d3a06c"/></g><g><path d="m5.516 41v1c0 .55-.45 1-1 1h-2c-.55 0-1-.45-1-1v-14c0-.55.45-1 1-1h2c.55 0 1 .45 1 1v1 4 4z" fill="#d3a06c"/></g><g><path d="m58.766 16.51c.48 1.1.75 2.32.75 3.59v6.9h-1c-.55 0-1 .45-1 1v1h-19l.86-1.71c.75-1.5 1.87-2.78 3.27-3.71.54-.36.87-.97.87-1.63 0-1.08-.87-1.95-1.95-1.95h-.24c-.52 0-1.02.21-1.38.57l-.2.2c-.79.79-1.85 1.23-2.96 1.23-.83 0-1.64-.24-2.32-.7l-1.32-.88c2.02-.7 3.37-1.97 3.37-3.42 0-.75-.36-1.45-1-2.06v-2.94l5-2 4.11.43.51 2.04c.24.95.95 1.72 1.88 2.03s1.64 1.08 1.88 2.03l.1.37c.3 1.24 1.41 2.1 2.68 2.1.55 0 1.08-.16 1.54-.46l1.25-.84c.68-.46 1.49-.7 2.32-.7.69 0 1.37-.17 1.97-.49z" fill="#969faa"/></g><g><path d="m23.516 14.94c-.64.6-1 1.31-1 2.06 0 2.21 3.13 4 7 4l2 6h-1c-.55 0-1 .45-1 1v1h-5.55c.5-.53 1.07-1.01 1.68-1.42.54-.36.87-.97.87-1.63 0-1.08-.87-1.95-1.95-1.95h-.24c-.52 0-1.02.21-1.38.57l-.2.2c-.79.79-1.85 1.23-2.96 1.23-.83 0-1.64-.24-2.32-.7l-1.32-.88c2.02-.7 3.37-1.97 3.37-3.42 0-.75-.36-1.45-1-2.06v-2.94l5-2z" fill="#969faa"/></g><g><path d="m35.516 2.28v4.75c-.2-.02-.4-.03-.61-.03h-.92c-.08-.08-.15-.16-.23-.24-.74-.75-1.69-1.3-2.75-1.57l2.14-3.57c.23-.38.64-.62 1.09-.62.71 0 1.28.57 1.28 1.28z" fill="#aab2bd"/></g><g><path d="m35.516 7.03c2.02.18 3.86 1.27 5 2.97l-5 2v-1c0-1.54-.58-2.94-1.53-4h.92c.21 0 .41.01.61.03z" fill="#aab2bd"/></g><g><path d="m24.126 7c-.21 0-.41.01-.61.03v-.03-4.72c0-.71.57-1.28 1.28-1.28.45 0 .86.24 1.09.62l2.14 3.57c-1.17.3-2.2.94-2.98 1.81z" fill="#aab2bd"/></g><g><path d="m24.126 7h.92c-.95 1.06-1.53 2.46-1.53 4v1l-5-2c1.14-1.7 2.98-2.79 5-2.97.2-.02.4-.03.61-.03z" fill="#aab2bd"/></g><g><path d="m18.516 10v1.03c-.2-.02-.4-.03-.61-.03h-.92c-.08-.08-.15-.16-.23-.24-.07-.08-.15-.15-2.75-1.57l2.14-3.57c.23-.38.64-.62 1.09-.62.71 0 1.28.57 1.28 1.28z" fill="#aab2bd"/></g><g><path d="m11.026 9.19c-1.17.3-2.2.94-2.98 1.81h-.92c-.21 0-.41.01-.61.03v-.03-4.72c0-.71.57-1.28 1.28-1.28.45 0 .86.24 1.09.62z" fill="#aab2bd"/></g><g><path d="m7.126 11h.92c-.95 1.06-1.53 2.46-1.53 4v1l-5-2c1.14-1.7 2.98-2.79 5-2.97.2-.02.4-.03.61-.03z" fill="#aab2bd"/></g><g><path d="m18.516 11.03c2.02.18 3.86 1.27 5 2.97l-5 2v-1c0-1.54-.58-2.94-1.53-4h.92c.21 0 .41.01.61.03z" fill="#aab2bd"/></g><g><path d="m31.006 5.19c1.06.27 2.01.82 2.75 1.57.08.08.15.16.23.24.95 1.06 1.53 2.46 1.53 4v1 2.94c-1.22-1.16-3.45-1.94-6-1.94s-4.78.78-6 1.94v-.94-2-1c0-1.54.58-2.94 1.53-4 .78-.87 1.81-1.51 2.98-1.81.48-.13.98-.19 1.49-.19z" fill="#ccd1d9"/></g><g><path d="m14.006 9.19c2.6 1.42 2.68 1.49 2.75 1.57.08.08.15.16.23.24.95 1.06 1.53 2.46 1.53 4v1 2.94c-1.22-1.16-3.45-1.94-6-1.94s-4.78.78-6 1.94v-2.94-1c0-1.54.58-2.94 1.53-4 .78-.87 1.81-1.51 2.98-1.81.48-.13.98-.19 1.49-.19z" fill="#ccd1d9"/></g><g><path d="m35.516 14.94c.64.61 1 1.31 1 2.06 0 1.45-1.35 2.72-3.37 3.42-1.05.37-2.29.58-3.63.58-3.87 0-7-1.79-7-4 0-.75.36-1.46 1-2.06 1.22-1.16 3.45-1.94 6-1.94s4.78.78 6 1.94z" fill="#aab2bd"/></g><g><path d="m18.516 18.94c.64.61 1 1.31 1 2.06 0 1.45-1.35 2.72-3.37 3.42-1.05.37-2.29.58-3.63.58-3.87 0-7-1.79-7-4 0-.75.36-1.45 1-2.06 1.22-1.16 3.45-1.94 6-1.94s4.78.78 6 1.94z" fill="#aab2bd"/></g><g><path d="m51.456 11.15c3.31.35 6.05 2.47 7.31 5.36h-.01c-.6.32-1.28.49-1.97.49-.83 0-1.64.24-2.32.7l-1.25.84c-.46.3-.99.46-1.54.46-1.27 0-2.38-.86-2.68-2.1l-.1-.37c-.24-.95-.95-1.72-1.88-2.03s-1.64-1.08-1.88-2.03l-.51-2.04z" fill="#e6e9ed"/></g><g><path d="m41.566 20c1.08 0 1.95.87 1.95 1.95 0 .66-.33 1.27-.87 1.63-1.4.93-2.52 2.21-3.27 3.71l-.86 1.71h-5v-1c0-.55-.45-1-1-1h-1l-2-6c1.34 0 2.58-.21 3.63-.58l1.32.88c.68.46 1.49.7 2.32.7 1.11 0 2.17-.44 2.96-1.23l.2-.2c.36-.36.86-.57 1.38-.57z" fill="#e6e9ed"/></g><g><path d="m19.786 26c1.11 0 2.17-.44 2.96-1.23l.2-.2c.36-.36.86-.57 1.38-.57h.24c1.08 0 1.95.87 1.95 1.95 0 .66-.33 1.27-.87 1.63-.61.41-1.18.89-1.68 1.42h-10.12l-1.33-4c1.34 0 2.58-.21 3.63-.58l1.32.88c.68.46 1.49.7 2.32.7z" fill="#e6e9ed"/></g></g><g><path d="m60.516 26v-5.897c0-5.133-3.849-9.408-8.953-9.945l-10.515-1.108c-1.13-1.481-2.735-2.49-4.532-2.87v-3.903c0-1.256-1.022-2.277-2.278-2.277-.796 0-1.544.424-1.952 1.105l-1.783 2.972c-.324-.045-.651-.077-.987-.077s-.664.032-.987.078l-1.783-2.971c-.409-.683-1.157-1.107-1.953-1.107-1.256 0-2.277 1.021-2.277 2.277v3.903c-1.091.231-2.112.69-3 1.349v-1.252c0-1.256-1.022-2.277-2.278-2.277-.796 0-1.544.424-1.952 1.105l-1.783 2.972c-.324-.045-.651-.077-.987-.077s-.664.032-.987.078l-1.784-2.972c-.408-.682-1.156-1.106-1.952-1.106-1.256 0-2.277 1.021-2.277 2.277v3.903c-1.956.414-3.698 1.563-4.832 3.265l-.684 1.026 5.516 2.206v1.871c-.637.721-1 1.555-1 2.452 0 2.65 3.14 4.755 7.272 4.978l.674 2.022h-5.946c0-1.103-.897-2-2-2h-2c-1.103 0-2 .897-2 2v14c0 1.103.897 2 2 2h2c1.103 0 2-.897 2-2h22c0 1.103.897 2 2 2h2c1.103 0 2-.897 2-2h22c0 1.103.897 2 2 2h2c1.103 0 2-.897 2-2v-14c0-1.103-.898-2-2-2zm-3.17-10.07c-.187.034-.374.07-.564.07-1.027 0-2.021.301-2.875.871l-1.25.833c-.29.193-.629.296-.979.296-.813 0-1.519-.551-1.716-1.338l-.093-.371c-.324-1.293-1.272-2.317-2.537-2.739-.613-.204-1.073-.701-1.23-1.327l-.162-.648 5.414.57c2.566.27 4.734 1.722 5.992 3.783zm-20.854-5.398c-.058-.866-.271-1.688-.617-2.44 1.127.192 2.169.704 2.992 1.489zm-2.585 11.597c.854.57 1.848.871 2.875.871 1.385 0 2.687-.539 3.666-1.519l.202-.202c.178-.177.424-.279.675-.279h.236c.526 0 .954.428.954.954 0 .32-.158.617-.425.794-1.538 1.026-2.788 2.441-3.614 4.094l-.579 1.158h-3.382c0-1.103-.897-2-2-2h-.28l-1.358-4.075c.746-.077 1.452-.216 2.109-.41zm.609 11.871h22v2h-22zm0-2v-2h22v2zm-6-4h-1.837c.527-.545.837-1.27.837-2.046 0-1.629-1.325-2.954-2.954-2.954h-.236c-.789 0-1.531.307-2.089.865l-.202.202c-1.003 1.002-2.63 1.193-3.847.49 1.445-.9 2.328-2.152 2.328-3.557 0-.897-.363-1.731-1-2.452v-1.871l2.24-.896c-.151.39-.24.796-.24 1.219 0 2.65 3.14 4.755 7.272 4.978l1.353 4.06c-.924.176-1.625.988-1.625 1.962zm-9.024-13.468c-.058-.866-.271-1.688-.617-2.44 1.127.192 2.169.704 2.992 1.489zm10.024 5.468c-3.536 0-6-1.581-6-3s2.464-3 6-3 6 1.581 6 3-2.464 3-6 3zm4.485-17.866c.128-.213.515-.107.515.143v3.723h-.111c-.558-.546-1.209-.995-1.924-1.332zm.515 8.866v2.074c-1.361-.673-3.091-1.074-5-1.074s-3.639.401-5 1.074v-2.074c0-2.757 2.243-5 5-5s5 2.243 5 5zm-9.486-8.865 1.52 2.534c-.715.336-1.365.785-1.924 1.331h-.111v-3.723c.001-.25.387-.358.515-.142zm-1.874 5.958c-.345.752-.559 1.574-.617 2.44l-2.375-.95c.823-.787 1.865-1.299 2.992-1.49zm-6.155-1.959c.128-.213.515-.107.515.143v3.42l-.167.251c-.546-.522-1.176-.955-1.867-1.28zm.515 8.866v2.074c-1.361-.673-3.091-1.074-5-1.074s-3.639.401-5 1.074v-2.074c0-2.757 2.243-5 5-5s5 2.243 5 5zm-9.486-8.865 1.52 2.534c-.715.336-1.365.785-1.924 1.331h-.11v-3.723c0-.25.386-.358.514-.142zm-1.874 5.958c-.345.752-.559 1.574-.617 2.44l-2.375-.95c.823-.787 1.865-1.299 2.992-1.49zm.36 8.907c0-1.419 2.464-3 6-3s6 1.581 6 3-2.464 3-6 3-6-1.581-6-3zm7.362 4.925c.746-.077 1.452-.216 2.109-.41l.92.612c.852.571 1.847.873 2.875.873 1.385 0 2.687-.539 3.666-1.519l.202-.202c.178-.177.424-.279.675-.279h.236c.526 0 .954.428.954.954 0 .32-.158.616-.425.794-.548.365-1.05.793-1.52 1.252h-9.002zm14.638 4.075v2h-22v-2zm0 4v2h-22v-2zm-26 8v-14h2l.002 14zm4-2v-2h22v2zm24 2v-14h2l.002 14zm4-2v-2h22v2zm22-12h-16.382l.132-.264c.671-1.342 1.686-2.491 2.935-3.324.823-.548 1.315-1.467 1.315-2.458 0-1.629-1.325-2.954-2.954-2.954h-.236c-.789 0-1.531.307-2.089.865l-.202.202c-1.002 1.002-2.629 1.192-3.847.491 1.445-.9 2.329-2.152 2.329-3.558 0-.897-.363-1.731-1-2.452v-1.871l4.141-1.657 3.167.333.338 1.356c.324 1.293 1.272 2.317 2.537 2.739.613.204 1.073.701 1.229 1.326l.093.371c.42 1.681 1.923 2.855 3.656 2.855.747 0 1.47-.219 2.09-.633l1.249-.833c.524-.349 1.134-.534 1.765-.534.473 0 .942-.072 1.396-.199.218.73.338 1.502.338 2.301v5.898c-1.103 0-2 .897-2 2zm2 14v-14h2l.002 14z"/><circle cx="26.516" cy="10" r="1"/><circle cx="27.516" cy="17" r="1"/><circle cx="31.516" cy="17" r="1"/><circle cx="32.516" cy="10" r="1"/><circle cx="9.516" cy="14" r="1"/><circle cx="10.516" cy="21" r="1"/><circle cx="14.516" cy="21" r="1"/><circle cx="15.516" cy="14" r="1"/></g></g></svg>