<?xml version="1.0" encoding="UTF-8"?>
<svg xmlns="http://www.w3.org/2000/svg" viewBox="0 0 512 512" width="512" height="512"><g id="outline"><path d="M240,240H208a8,8,0,0,0-8,8v32a8,8,0,0,0,8,8h32a8,8,0,0,0,8-8V248A8,8,0,0,0,240,240Zm-8,32H216V256h16Z"/><path d="M488,440V416a8,8,0,0,0-16,0H456a8,8,0,0,0-16,0v24H424V418.422L436.281,400h12.086a23.633,23.633,0,0,0,13.109-43.3L444.9,345.651l-8.585-7.63A8,8,0,0,0,431,336H413.131l-3.389-132.174,9.342,19.415a8,8,0,0,0,11.911,3l38.833-28.214a8,8,0,0,0,.824-12.256l-49.7-47.483,68.116-9.2a8,8,0,0,0,6.537-10.4L480.775,73.037a8,8,0,0,0-11.4-4.572l-60.516,32.592,12.3-67.626A8,8,0,0,0,413.282,24h-48a8,8,0,0,0-7.871,9.431l12.3,67.625L309.19,68.465a8,8,0,0,0-11.4,4.572l-14.833,45.651a8,8,0,0,0,6.537,10.4l68.115,9.2-49.7,47.482a8,8,0,0,0,.824,12.256l38.833,28.214a8,8,0,0,0,11.911-3l6.634-13.787L362.664,344H324.492a36.588,36.588,0,0,0-4.492.286V288h24a8,8,0,0,0,6.247-13l-32-40a7.942,7.942,0,0,0-2.224-1.894c-.068-.043-.117-.091-.192-.132L232,187.25V168h21.578l-2.016,1.344a8,8,0,1,0,8.876,13.312l24-16a8,8,0,0,0,0-13.312l-24-16a8,8,0,1,0-8.876,13.312L253.578,152H232V136a8.042,8.042,0,0,0-.121-1.343,31.842,31.842,0,0,0,21.158-20.47l.755-2.267A20,20,0,0,0,252,72a36.728,36.728,0,0,0-26.142,10.828L220.687,88H192a8,8,0,0,0-7.155,11.578l9.393,18.787a31.706,31.706,0,0,0,21.8,16.927c-.021.233-.036.469-.036.708v16H203.313l-5.656-5.657a8,8,0,0,0-11.314,11.314L188.686,160l-2.343,2.343a8,8,0,0,0,11.314,11.314L203.314,168H216v16H136a8,8,0,0,0-3.831.977l-88,48a7.992,7.992,0,0,0-3.029,2.907l-24,40A8,8,0,0,0,24,288V440a8,8,0,0,0-8,8v32a8,8,0,0,0,8,8H488a8,8,0,0,0,8-8V448A8,8,0,0,0,488,440ZM208.549,111.209,204.944,104H224a8,8,0,0,0,5.657-2.343l7.515-7.515A20.833,20.833,0,0,1,252,88a4,4,0,0,1,0,8h-4a8,8,0,0,0-7.589,5.47l-2.553,7.657a15.9,15.9,0,0,1-29.309,2.082ZM456,440v-8h16v8ZM363.32,178.358l-13.909-10.106,23.643-22.589A24.181,24.181,0,0,0,377.5,148.9Zm-29.954-59.487,5.313-16.351,28.785,15.5a23.729,23.729,0,0,0-1.707,5.226ZM439.885,102.52l5.313,16.351-32.39,4.376a23.826,23.826,0,0,0-1.707-5.225ZM397.282,128a8,8,0,1,1-8-8A8.009,8.009,0,0,1,397.282,128Zm3.786,20.9a24.162,24.162,0,0,0,4.442-3.232l23.643,22.589-13.909,10.106ZM389.282,104a24.2,24.2,0,0,0-2.748.162L380.686,72h17.192l-5.847,32.162A24.229,24.229,0,0,0,389.282,104Zm40.064,103.666L422.3,193.011l18.615-13.525,11.758,11.235Zm48.083-93.15-16.115,2.177L454.2,94.809,468.521,87.1ZM403.7,40l-2.909,16h-23.01l-2.909-16ZM310.043,87.1l14.318,7.711-7.111,21.884-16.115-2.177Zm39.175,120.568L325.9,190.721l11.758-11.235,18.616,13.525Zm33.8-33.349,6.261-13.013,3.553,7.384L397.331,344H378.669ZM405,360a8,8,0,0,0,7.938-7.008l.027-.217a7.771,7.771,0,0,0,.248-.775h14.745l6.727,5.979a7.877,7.877,0,0,0,.877.677l17.039,11.36A7.633,7.633,0,0,1,448.367,384H432a8,8,0,0,0-6.656,3.562l-16,24A8,8,0,0,0,408,416v24h-9.754l-6.485-25.94A8,8,0,0,0,384,408H336a8,8,0,0,0-7.761,6.06L321.754,440H312V416a7.977,7.977,0,0,0-.239-1.94l-1.533-6.132c.586.043,1.175.072,1.772.072h8a8,8,0,0,0,0-16h-8a8,8,0,0,1-6.64-3.544l-.748-2.992A20.493,20.493,0,0,1,324.492,360Zm-66.754,80,4-16h18.367l-.411,16Zm38.372-16h1.136l4,16h-5.546ZM288,380.492V384a23.857,23.857,0,0,0,2.33,10.307L296,416.985V440H280V360a8,8,0,0,0,8-8V328a8,8,0,0,0-8-8H168a8,8,0,0,0-8,8v24a8,8,0,0,0,8,8v80H150.624A23.953,23.953,0,0,0,144,414.131V244.749l80-43.636,80,43.637V350.314A36.481,36.481,0,0,0,288,380.492Zm-24-9.178v57.372L235.314,400Zm-40,17.372L195.314,360h57.372ZM272,344H176v-8h96Zm-59.314,56L184,428.686V371.314ZM224,411.314,252.686,440H195.314ZM80,400a8.009,8.009,0,0,1,8-8h9.376a23.944,23.944,0,0,0,0,16H88A8.009,8.009,0,0,1,80,400Zm48,0a8,8,0,1,1-8-8A8.009,8.009,0,0,1,128,400ZM72,432a8.009,8.009,0,0,1,8-8h25.376a23.944,23.944,0,0,0,0,16H80A8.009,8.009,0,0,1,72,432Zm48,0a8,8,0,1,1,8,8A8.009,8.009,0,0,1,120,432ZM320,272v-9.193L327.355,272ZM138.04,200h54.586l-58.667,32H79.373ZM52.53,248h69.34l-14.4,24H38.129ZM40,288h72a8,8,0,0,0,6.86-3.884L128,268.883V377.376A23.889,23.889,0,0,0,120,376H88a23.982,23.982,0,0,0-20.9,35.777A23.964,23.964,0,0,0,57.376,440H40ZM480,472H32V456H480Z"/></g></svg>
