<svg clip-rule="evenodd" fill-rule="evenodd" height="512" stroke-linejoin="round" stroke-miterlimit="2" viewBox="0 0 24 24" width="512" xmlns="http://www.w3.org/2000/svg"><g id="Icon"><path d="m2 12.75c-.249 0-.481.123-.621.329-.139.206-.168.467-.076.698l1 2.514c.063.158.177.289.324.374l3 1.721c.231.133.515.133.746 0l1.877-1.077v1.287c0 .22.096.429.264.571l4 3.404c.199.17.472.223.72.141.249-.081.437-.286.496-.541l.926-3.947s2.344-1.345 2.344-1.345 2.627 1.507 2.627 1.507c.181.104.398.128.598.065.199-.063.364-.206.453-.395l2-4.236c.11-.232.093-.504-.044-.721-.138-.217-.377-.349-.634-.349h-20z"/><path d="m12 1.25c-2.346 0-4.25 1.904-4.25 4.25 0 2.738 1.929 5.1 3.039 6.208.003.002.005.005.008.008.671.649 1.736.648 2.406-.001.002-.003.005-.005.007-.008 1.111-1.107 3.04-3.469 3.04-6.207 0-2.346-1.904-4.25-4.25-4.25zm0 3.25c.552 0 1 .448 1 1s-.448 1-1 1-1-.448-1-1 .448-1 1-1z"/></g></svg>