<svg width="324.35" height="58.10070930569291" viewBox="0 0 358.3898305084746 64.19825299981326"
    class="css-1j8o68f">
    <defs id="SvgjsDefs1650"></defs>
    <g id="SvgjsG1651" featurekey="ECw45b-0"
        transform="matrix(5.980463145108417,0,0,5.980463145108417,300.048299085071,5.2546172384930765)"
        fill="#ffffff">
        <g xmlns="http://www.w3.org/2000/svg">
            <path style="color:;paint-order:fill markers stroke;"
                d="m 2.6691323,0.79350226 a 0.26460897,0.26460897 0 0 0 -0.251664,0.1757 c 0,0 -0.438675,1.14515104 -0.10387,2.19418104 -0.03724,-0.0027 -0.0748,-0.0039 -0.112138,-0.0036 -0.234242,0.0021 -0.468233,0.06325 -0.678511,0.184485 a 0.26460897,0.26460897 0 0 0 -0.0021,0 c -0.448029,0.258969 -0.71497503,0.748615 -0.69143103,1.265556 a 0.26460897,0.26460897 0 0 0 0.12299,0.21084 c 0.36520103,0.233599 0.81378603,0.280262 1.21336303,0.137459 -9.53e-4,0.03163 -0.0026,0.06323 -0.0026,0.09509 v 0.751892 c 0.13926,-0.12134 0.289145,-0.23188 0.447001,-0.329179 0.731757,-0.451038 1.666248,-0.696082 2.682007,-0.696082 1.015762,0 1.950252,0.245044 2.682008,0.696082 0.157855,0.0973 0.307742,0.207839 0.447,0.329179 v -0.751892 c 0,-0.03203 -0.0016,-0.06381 -0.0026,-0.0956 0.39955,0.142494 0.848987,0.09568 1.213879,-0.137459 a 0.26460847,0.26460847 0 0 0 0.121439,-0.21084 c 0.02363,-0.516977 -0.243383,-1.004991 -0.691431,-1.264005 -0.207073,-0.11955 -0.441478,-0.183786 -0.680579,-0.186036 a 0.26460847,0.26460847 0 0 0 -5.3e-4,0 c -0.03698,-2.91e-4 -0.07389,0.0015 -0.110587,0.0041 0.334806,-1.049031 -0.103871,-2.19418104 -0.103871,-2.19418104 a 0.26460897,0.26460897 0 0 0 -0.251663,-0.1757 0.26460897,0.26460897 0 0 0 -0.248047,0.179834 c -0.177459,0.52179704 -0.297754,0.83723804 -0.42168,1.02319304 -0.106386,0.159643 -0.208677,0.244157 -0.416512,0.332797 -0.45397,-0.256162 -0.978075,-0.403077 -1.536856,-0.403077 -0.558782,0 -1.082886,0.146915 -1.536858,0.403077 -0.207836,-0.08863 -0.310126,-0.173142 -0.416515,-0.332785 -0.123923,-0.185955 -0.244219,-0.501396 -0.42168,-1.02319304 a 0.26460897,0.26460897 0 0 0 -0.248046,-0.179834 z m 1.400431,2.68562404 a 0.26458349,0.26458349 0 0 1 0.26355,0.265617 v 0.503846 a 0.26458349,0.26458349 0 0 1 -0.26355,0.264066 0.26458349,0.26458349 0 0 1 -0.265617,-0.264066 v -0.503846 a 0.26458349,0.26458349 0 0 1 0.265617,-0.265617 z m 2.445328,0 a 0.26458349,0.26458349 0 0 1 0.265618,0.265617 v 0.503846 a 0.26458349,0.26458349 0 0 1 -0.265618,0.264066 0.26458349,0.26458349 0 0 1 -0.263549,-0.264066 v -0.503846 a 0.26458349,0.26458349 0 0 1 0.263549,-0.265617 z m -1.222663,1.829863 c -0.928966,0 -1.773431,0.228553 -2.404505,0.617533 -0.631074,0.38898 -1.064017,0.961215 -1.064017,1.62264 0,0.661425 0.432943,1.23211 1.064017,1.62109 0.631074,0.388981 1.475539,0.6196 2.404505,0.6196 0.928968,0 1.77343,-0.230619 2.404504,-0.6196 0.631073,-0.38898 1.064019,-0.959665 1.064019,-1.62109 0,-0.661425 -0.432946,-1.23366 -1.064019,-1.62264 -0.631074,-0.38898 -1.475536,-0.617533 -2.404504,-0.617533 z m -1.196827,1.946651 a 0.29316767,0.29315224 0 0 1 0.294556,0.294039 0.29316767,0.29315224 0 0 1 -0.294556,0.292489 0.29316767,0.29315224 0 0 1 -0.291971,-0.292489 0.29316767,0.29315224 0 0 1 0.291971,-0.294039 z m 2.391069,0 a 0.29316767,0.29315224 0 0 1 0.294555,0.294039 0.29316767,0.29315224 0 0 1 -0.294555,0.292489 0.29316767,0.29315224 0 0 1 -0.291971,-0.292489 0.29316767,0.29315224 0 0 1 0.291971,-0.294039 z"
                fill="#ffffff" fill-rule="evenodd" stroke-width="1" stroke-linecap="round"
                stroke-linejoin="round"></path>
        </g>
    </g>
    <g id="SvgjsG1652" featurekey="6sJQsk-0"
        transform="matrix(3.7953959393062555,0,0,3.7953959393062555,-2.580868587205361,-12.468740630687137)"
        fill="#ffffff">
        <path
            d="M0.68 20 l0 -0.56 c0.68 -0.7 1.06 -1.64 1.06 -2.62 l0 -7.64 c0 -0.96 -0.38 -1.9 -1.06 -2.62 l0 -0.56 l10 0 l0.1 2.58 l-0.94 0 c-1.32 -1.08 -2.98 -1.64 -4.66 -1.64 l-1.26 0 l0 5.8 l3 0 l0 0.92 l-3 0 l0 3.16 c0 0.94 0.38 1.92 1.08 2.64 l0 0.54 l-4.32 0 z M18.546 20 l0 -0.58 c0.66 -0.68 1.06 -1.62 1.06 -2.6 l0 -3.3 c0 -0.96 -0.36 -1.9 -1.04 -2.6 l0 -0.58 l2.72 0 c-0.16 -2.68 -2.84 -3.26 -4.34 -3.26 l-0.9 0 c0.2 0.26 0.32 0.58 0.32 0.92 c0 0.76 -0.62 1.36 -1.4 1.36 c-0.76 0 -1.4 -0.6 -1.4 -1.36 c0 -0.78 0.64 -1.44 1.4 -1.44 l1.54 0 c0.9 0 1.94 0.16 2.62 0.42 c1.2 0.46 2.66 1.54 2.66 3.36 l0 1.1 c0.62 -0.38 1.38 -0.62 2.16 -0.62 c2.32 0 3.62 1.46 3.62 4.88 l0 1.14 c0 0.96 0.38 1.9 1.02 2.58 l0 0.58 l-4.26 0 l0 -0.58 c0.68 -0.68 1.04 -1.62 1.04 -2.58 l0 -2.4 c0 -1.42 -1.1 -2.8 -2.34 -2.8 c-0.64 0 -1.24 0.44 -1.24 1.16 l0 4.04 c0 0.96 0.36 1.9 1.04 2.58 l0 0.58 l-4.28 0 z M13.426 20 l0 -0.58 c0.58 -0.68 0.92 -1.62 0.92 -2.58 l0 -3.32 c0 -0.96 -0.34 -1.9 -0.92 -2.62 l0 -0.56 l2.8 0 l0 6.5 c0 0.96 0.3 1.9 0.88 2.58 l0 0.58 l-3.68 0 z M40.032000000000004 17.48 l1.36 0 c-0.88 1.6 -2.58 2.72 -4.52 2.72 c-2.84 0 -5.56 -1.9 -5.56 -4.98 c0 -3.38 2.72 -5.04 5.56 -5.04 l0.5 0 c1.7 0 3.28 1.1 3.96 2.66 l-2.18 0 c-0.82 -1.26 -1.92 -1.94 -3.02 -1.94 c-1.56 0 -2.46 1.38 -2.46 3.14 c0 3.04 2.14 5.64 4 5.64 c1.2 0 2.08 -0.94 2.36 -2.2 z M52.118 20 l-0.54 -0.14 c-0.9 -0.24 -1.88 -0.24 -2.72 0.02 c-0.34 0.1 -0.66 0.12 -0.98 0.12 c-1.96 0 -3.52 -1.54 -3.52 -3.48 c0 -1.9 1.56 -3.46 3.52 -3.46 c0.78 0 1.48 0.24 2.02 0.62 l0 -0.02 s0.16 -2.44 -0.92 -2.74 c-1.12 -0.32 -1.52 0.34 -2.34 1.58 l-1.68 -0.02 c0.52 -1.32 1.54 -2.24 2.98 -2.24 c0.54 0 1.1 0.1 1.64 0.26 c0 0 2.54 0.78 2.54 3.16 l0 6.34 z M45.978 17.02 c0.46 1.5 1.6 2.56 2.76 2.3 c1.12 -0.26 1.64 -1.72 1.18 -3.28 c-0.44 -1.48 -1.74 -2.54 -2.86 -2.26 c-1.14 0.28 -1.54 1.72 -1.08 3.24 z M55.764 19.02 l-0.02 -1.96 l1.16 0 l0.78 0.82 c0.76 0.8 1.8 1.34 2.88 1.34 c1.98 0 2.88 -1.46 2.88 -2.36 c0 -1.56 -1.92 -3.16 -4.44 -4.76 l0 -0.22 c2.32 -1.34 4.06 -2.3 4.06 -3.42 c0 -0.88 -1.16 -1.84 -2.68 -1.84 c-0.96 0 -2.02 0.4 -2.68 1.12 l-0.62 0.66 l-1.1 0 l0.02 -1.62 c1.44 -0.56 2.8 -0.78 4.14 -0.78 c1.12 0 4.88 -0.08 4.98 2.62 c0 1.16 -1.44 2.08 -4.82 3.26 l0 0.22 c3.7 1.44 5.34 3.14 5.34 4.68 c0 3.18 -4.16 3.22 -5.36 3.22 c-1.48 0 -2.96 -0.28 -4.52 -0.98 z M78.45 9.08 l-0.62 -0.1 s-0.62 -2.36 -3.56 -2.36 c-2.08 0 -3.08 3.52 -3.08 5.18 c0.76 -0.52 1.72 -0.82 2.76 -0.82 c2.68 0 4.88 2.06 4.88 4.58 c0 2.48 -2.2 4.54 -4.88 4.54 c-3.82 0 -5.06 -3.48 -5.06 -6.64 c0 -3.34 1.52 -7.54 5.62 -7.54 c2.12 0 3.94 0.96 3.94 0.96 l0 2.2 z M74.69 19.54 c1.42 0 2.36 -1.32 2.36 -2.88 c0 -2.54 -1.9 -5.12 -3.86 -5.12 c-1.46 0 -2.18 1.08 -2.12 2.88 c0.1 2.54 1.7 5.12 3.62 5.12 z"></path>
    </g>
</svg>