<svg id="Layer_1" enable-background="new 0 0 64 64" height="512" viewBox="0 0 64 64" width="512" xmlns="http://www.w3.org/2000/svg"><path d="m22.09281 24.50534c-.69125.79375-1.25437 1.68969-1.71515 2.6625-.84484-.23047-1.99688-.92156-2.22719-2.79047-.02563-.07672 0-.15359.07672-.23031.07687-.1025.20484-.17922.33281-.17922 1.43359-.05125 2.61125.20484 3.53281.5375zm15.79516 18.91843c0 .87047-.35828 1.68969-.97281 2.30406-.61438.58875-1.43359.92156-2.30391.92156l-5.42719-.02563c-1.79203 0-3.25125-1.45922-3.25125-3.25109.02563-1.79203 1.48484-3.25125 3.27688-3.25125l5.42719.02562c1.79187.00001 3.25109 1.4847 3.25109 3.27673zm-6.98875-.02562c0-.71672-.56313-1.30547-1.28-1.30547-.69125 0-1.28.56313-1.28 1.28 0 .71672.56328 1.28 1.28 1.28.69125 0 1.28-.56328 1.28-1.25453zm4.58234 0c.02562-.69109-.56313-1.28-1.25438-1.28-.71672 0-1.28.56328-1.30563 1.28 0 .69125.58891 1.28 1.28 1.28.71689 0 1.28001-.56313 1.28001-1.28zm6.80969-9.95828c-.02562 2.89281-.84484 5.58078-2.30406 7.73109-.87031-2.09922-2.91844-3.5839-5.32469-3.5839l-5.42734-.02563c-.02547 0-.02547 0-.02547 0-2.40641 0-4.48 1.45922-5.37609 3.55844-1.43359-2.17609-2.22719-4.88969-2.20156-7.7825.02563-3.22563.97281-5.86234 2.76484-7.62875 1.79187-1.76641 4.30078-2.71359 7.62875-2.63687 3.43047 0 6.09282 1.02406 7.85922 2.99531 1.58718 1.79203 2.4064 4.3264 2.4064 7.37281zm-12.39047-3.17453c-.61438-.76797-1.56156-1.20313-2.56-1.22875-1.07516-.07672-1.94563.43516-2.58563 1.20328-.43516.56313-.38391 1.35672.17922 1.8175.53765.43531 1.33125.38406 1.79203-.17922.20484-.23031.46078-.28156.58875-.28156.20484.02563.40969.05125.61453.30719.25594.30719.61437.46078.99828.46078.28172 0 .56328-.10234.79359-.28156.56329-.46079.64001-1.25438.17923-1.81766zm9.29281.05125c-.64-.76797-1.56156-1.22875-2.58562-1.22875-.99828 0-1.92.43516-2.56 1.20313-.46078.53766-.38391 1.35688.15359 1.79203.53766.46078 1.35688.38406 1.79203-.15359.20484-.23031.46078-.28156.61437-.28156.12813 0 .38406.05125.58891.28156.25594.30719.64.48641.99828.48641.28172 0 .56328-.10234.81922-.30719.53766-.43517.61438-1.25439.17922-1.79204zm6.24641-6.22079c-1.22875-.07672-2.40641.12797-3.50719.48641.69125.79359 1.22875 1.71516 1.66406 2.71359.87031-.23047 2.02234-.89594 2.27828-2.76484l-.07672-.25594c-.10234-.10234-.23046-.17922-.35843-.17922zm18.56-3.19999c0 10.80328-10.03516 28.67203-29.56797 37.55516-1.53593.69125-3.32797.69125-4.86406 0-19.53281-8.88313-29.56797-26.75188-29.56797-37.55516 0-4.07047 1.58719-8.11516 4.68484-11.26406 7.32157-7.52641 21.68313-5.76001 27.31516 4.86405 5.63203-10.62406 19.9936-12.39046 27.34078-4.86406 3.07203 3.14891 4.65922 7.1936 4.65922 11.26407zm-15.61594 4.01921c.12797-.79359-.07688-1.61281-.61438-2.25281-.53765-.66562-1.33125-1.07516-2.20172-1.12641-2.04797-.10234-3.94234.30719-5.70875 1.15203-.53765-.35844-1.12641-.64-1.71516-.89609l.02563-2.63672c0-.69125-.56328-1.28-1.28-1.28-.69125 0-1.28.56313-1.28 1.28l-.02563 1.79203c-1.10078-.25609-2.27843-.43531-3.55844-.43531h-.12797c-1.25437 0-2.38078.15359-3.48156.38406l.02547-1.79203c0-.69109-.56313-1.28-1.28-1.28-.69109 0-1.28.56328-1.28 1.28l-.02547 2.63688c-.58891.25594-1.15203.5375-1.66406.87031-1.33125-.66562-3.22563-1.28-5.76-1.20313-.84484.05125-1.63844.43516-2.17594 1.10078-.53766.61437-.76813 1.40797-.66563 2.20156.30719 2.45765 1.8175 4.22406 3.96797 4.88969-.28156 1.1775-.48641 2.40641-.48641 3.7375-.02563 4.48 1.61281 8.62719 4.50562 11.44328.64 2.53437 2.89281 4.40313 5.60641 4.40313l5.42719.02563c2.71359 0 4.99203-1.86875 5.63203-4.37766 2.89281-2.79031 4.58234-6.91187 4.60797-11.39187 0-1.33125-.17922-2.56-.46078-3.73766 1.92002-.58875 3.63517-2.12484 3.99361-4.78719z"/></svg>