<svg id="Capa_1" enable-background="new 0 0 601.824 601.824" height="512" viewBox="0 0 601.824 601.824" width="512" xmlns="http://www.w3.org/2000/svg"><g><path d="m601.824 480.99v32.33c0 6.705-3.788 12.834-9.785 15.832-99.387 49.693-199.656 49.693-299.044 0-11.645-5.823-23.276-10.887-34.895-15.194l-1.596-20.679c-9.47-71.024-38.467-124.185-87.048-158.193-47.655-33.359-101.895-47.717-162-42.971l-7.456.773v-204.384c0-6.705 3.788-12.834 9.785-15.832 61.443-30.721 123.223-42.45 184.923-35.186v24.468c.229 64.391 13.058 112.5 39.53 144.118 16.07 19.195 34.484 31.652 67.522 48.646 2.206 1.134 4.472 2.29 7.496 3.827 3.761 1.908 5.822 2.954 7.532 3.824 6.115 3.112 10.65 5.457 15.117 7.833 11.419 6.076 21.007 11.66 30.104 17.668 8.41 5.555 16.24 11.381 23.679 17.691 14.645 12.423 24.219 26.507 32.462 45.729 2.824 6.585 3.81 9.211 9.573 25.06 13.893 38.204 24.781 56.309 50.068 72.283 36.83 23.266 71.724 34.257 104.607 32.358h19.426zm0-35.379-21.059.012c-24.875 1.551-52.873-7.214-84.068-26.92-16.796-10.61-24.298-23.085-35.705-54.452-6.041-16.613-7.107-19.451-10.307-26.914-10.252-23.908-22.86-42.455-42.097-58.773-8.555-7.257-17.516-13.925-27.07-20.235-10.131-6.691-20.65-12.818-32.985-19.381-4.691-2.496-9.399-4.93-15.689-8.131-1.73-.88-3.814-1.938-7.557-3.837-2.975-1.511-5.192-2.642-7.334-3.744-29.138-14.987-44.321-25.259-56.57-39.89-20.298-24.245-31.071-64.64-31.273-121.456v-18.15c26.279 6.194 52.53 15.838 78.719 28.932 89.421 44.71 177.959 44.71 267.379 0 11.769-5.884 25.617 2.674 25.617 15.832v357.107zm-115.054-197.801c14.664 0 26.551-11.887 26.551-26.551s-11.887-26.551-26.551-26.551-26.551 11.887-26.551 26.551 11.887 26.551 26.551 26.551zm-264.999 255.15c-65.375-15.351-130.527-6.62-196.155 26.193-11.768 5.884-25.616-2.674-25.616-15.832v-184.847l10.672-1.104c51.572-4.066 97.636 8.128 138.484 36.721 39.818 27.873 63.902 71.908 72.194 133.386z"/></g></svg>