<svg height="512" viewBox="0 0 60 60" width="512" xmlns="http://www.w3.org/2000/svg"><g id="b"><path d="m23.632 8.346c-.964.5-1.632 1.495-1.632 2.654 0 .418.087.82.247 1.189-8.823 4.996-14.247 17.049-14.247 25.811 0 14.858.935 22 22 22 22 0 22-6.895 22-22 0-8.764-5.427-20.821-14.253-25.815.161-.37.253-.771.253-1.185 0-.811-.316-1.566-.874-2.108-.223-.228-.482-.403-.758-.546l1.648-3.846c.298-.694.182-1.483-.303-2.06-.49-.584-1.261-.838-2.009-.662-1.306.308-3.27.444-5.215-.65-2.427-1.366-4.843-1.244-6.442-.9-.881.189-1.623.756-2.037 1.555-.414.8-.447 1.733-.093 2.562l1.715 4zm11.368 1.654c.267 0 .513.102.713.306.185.181.287.427.287.694 0 .292-.128.566-.361.761-.127.109-.341.239-.639.239h-10c-.298 0-.512-.13-.713-.306-.185-.181-.287-.427-.287-.694 0-.551.448-1 1-1zm15 28c0 14.96 0 20-20 20-19.031 0-20-5.139-20-20 0-8.374 5.481-19.983 13.681-24.322.409.203.857.322 1.319.322h10c.463 0 .912-.119 1.32-.321 8.2 4.339 13.68 15.947 13.68 24.321zm-26.214-35.298c.081-.157.277-.433.681-.52 1.258-.269 3.159-.371 5.043.689 2.51 1.412 5.003 1.243 6.669.84l-1.838 4.288h-8.682l-1.904-4.442c-.162-.379-.05-.699.031-.855z"/><path d="m28.545 23.572c-.283-.185-.641-.213-.95-.076-2.184.967-3.595 3.128-3.595 5.504s1.411 4.537 3.595 5.504c.13.058.268.086.405.086.19 0 .381-.055.545-.162.284-.185.455-.5.455-.838v-9.18c0-.338-.171-.654-.455-.838zm-1.545 8.072c-.632-.72-1-1.654-1-2.644s.368-1.924 1-2.644v5.287z"/><path d="m31 47.59c0 .338.171.654.455.838.164.107.354.162.545.162.138 0 .275-.028.405-.086 2.184-.967 3.595-3.128 3.595-5.504s-1.411-4.537-3.595-5.504c-.309-.138-.668-.109-.95.076-.284.185-.455.5-.455.838zm2-7.233c.632.72 1 1.654 1 2.644s-.368 1.924-1 2.644v-5.287z"/><path d="m34 29c0 1.654 1.346 3 3 3s3-1.346 3-3c0-4.347-2.899-8.238-7-9.542v-.458c0-1.654-1.346-3-3-3s-3 1.346-3 3v.458c-4.101 1.304-7 5.195-7 9.542s2.899 8.238 7 9.542v7.102c-.632-.72-1-1.654-1-2.644 0-1.654-1.346-3-3-3s-3 1.346-3 3c0 4.347 2.899 8.238 7 9.542v.458c0 1.654 1.346 3 3 3s3-1.346 3-3v-.458c4.101-1.304 7-5.195 7-9.542s-2.899-8.238-7-9.542v-7.102c.632.72 1 1.654 1 2.644zm-2.225 6.195c3.607.83 6.225 4.112 6.225 7.805s-2.617 6.976-6.225 7.805c-.453.104-.775.509-.775.975v1.22c0 .551-.448 1-1 1s-1-.449-1-1v-1.22c0-.466-.322-.87-.775-.975-3.607-.83-6.225-4.112-6.225-7.805 0-.551.448-1 1-1s1 .449 1 1c0 2.376 1.411 4.537 3.595 5.504.31.138.667.108.95-.076.284-.185.455-.5.455-.838v-9.81c0-.466-.322-.87-.775-.975-3.607-.83-6.225-4.112-6.225-7.805s2.617-6.976 6.225-7.805c.453-.104.775-.509.775-.975v-1.22c0-.551.448-1 1-1s1 .449 1 1v1.22c0 .466.322.87.775.975 3.607.83 6.225 4.112 6.225 7.805 0 .551-.448 1-1 1s-1-.449-1-1c0-2.376-1.411-4.537-3.595-5.504-.309-.138-.668-.109-.95.076-.284.185-.455.5-.455.838v9.81c0 .466.322.87.775.975z"/><path d="m7 13h7c.553 0 1-.448 1-1s-.447-1-1-1h-7c-.553 0-1 .448-1 1s.447 1 1 1z"/><path d="m15.293 9.707c.195.195.451.293.707.293s.512-.098.707-.293c.391-.391.391-1.023 0-1.414l-4-4c-.391-.391-1.023-.391-1.414 0s-.391 1.023 0 1.414z"/><path d="m44 10c.256 0 .512-.098.707-.293l4-4c.391-.391.391-1.023 0-1.414s-1.023-.391-1.414 0l-4 4c-.391.391-.391 1.023 0 1.414.195.195.451.293.707.293z"/><path d="m45 12c0 .552.447 1 1 1h7c.553 0 1-.448 1-1s-.447-1-1-1h-7c-.553 0-1 .448-1 1z"/></g></svg>