<svg id="Capa_1" enable-background="new 0 0 512 512" height="512" viewBox="0 0 512 512" width="512" xmlns="http://www.w3.org/2000/svg"><g><path d="m208.5 227c-12.426 0-22.5 10.074-22.5 22.5s10.074 22.5 22.5 22.5h95c12.426 0 22.5-10.074 22.5-22.5s-10.074-22.5-22.5-22.5z"/><path d="m167.296 65.117c8.44 5.796 17.636 10.144 27.286 12.981-.636 1.168-1.232 2.365-1.778 3.595l-10.067 22.651c-10.082 22.686-5.152 49.239 12.402 66.794 6.885 6.884 10.777 16.198 10.854 25.925.831-.039 1.667-.064 2.507-.064h95c.841 0 1.676.024 2.507.064.078-9.728 3.97-19.041 10.854-25.925 17.554-17.555 22.485-44.108 12.402-66.794l-10.067-22.651c-.547-1.23-1.143-2.427-1.778-3.595 9.65-2.838 18.846-7.185 27.286-12.981 16.086-11.048 28.291-26.515 35.296-44.729 2.974-7.732-.884-16.411-8.615-19.385-7.733-2.972-16.412.883-19.385 8.617-9.75 25.351-34.552 42.384-61.714 42.384h-68.572c-27.162 0-51.964-17.033-61.714-42.384-2.974-7.733-11.653-11.588-19.385-8.616-7.731 2.974-11.589 11.653-8.615 19.385 7.005 18.213 19.21 33.68 35.296 44.728z"/><path d="m356.679 92.16c6.988 15.724 9.306 32.888 6.767 49.84h22.554c24.813 0 45-20.187 45-45 0-8.284-6.716-15-15-15h-63.837z"/><path d="m126 142h22.554c-2.539-16.951-.221-34.116 6.768-49.841l4.515-10.159h-63.837c-8.284 0-15 6.716-15 15 0 24.813 20.187 45 45 45z"/><path d="m364.801 172h-11.458c-4.068 7.414-9.181 14.264-15.268 20.351-1.339 1.338-2.075 3.117-2.075 5.009v10.955c12.169 9.623 20 24.502 20 41.185 0 28.949-23.552 52.5-52.5 52.5h-95c-28.948 0-52.5-23.551-52.5-52.5 0-16.683 7.831-31.562 20-41.185v-10.955c0-1.892-.736-3.671-2.074-5.008-6.087-6.087-11.2-12.938-15.269-20.352h-11.458l-35.557 42.743c-19.76 23.752-30.642 53.848-30.642 84.745 0 44.768 22.777 86.458 60 110.844v52.449c-12.501 7.02-20.141 20.136-19.998 34.619.08 8.128 6.87 14.6 14.998 14.6h50c8.284 0 15-6.716 15-15v-55c0-11.046 8.954-20 20-20h70c11.046 0 20 8.954 20 20v55c0 8.284 6.716 15 15 15h50c8.128 0 14.918-6.472 14.998-14.6.143-14.483-7.497-27.599-19.998-34.619v-52.449c37.223-24.386 60-66.076 60-110.844 0-30.897-10.882-60.994-30.642-84.745z"/></g></svg>