<?xml version="1.0" encoding="iso-8859-1"?>
<!-- Generator: Adobe Illustrator 19.0.0, SVG Export Plug-In . SVG Version: 6.00 Build 0)  -->
<svg version="1.1" id="Capa_1" xmlns="http://www.w3.org/2000/svg" xmlns:xlink="http://www.w3.org/1999/xlink" x="0px" y="0px"
	 viewBox="0 0 480 480" style="enable-background:new 0 0 480 480;" xml:space="preserve">
<g>
	<g>
		<path d="M400,64h-40V24c0-4.418-3.582-8-8-8h-80V8c0-4.418-3.582-8-8-8H160c-4.418,0-8,3.582-8,8v8H80c-4.418,0-8,3.582-8,8v400
			c0,4.418,3.582,8,8,8h40v40c0,4.418,3.582,8,8,8h272c4.418,0,8-3.582,8-8V72C408,67.582,404.418,64,400,64z M168,16h88v16h-88V16z
			 M120,72v344H88V32h64v8c0,4.418,3.582,8,8,8h104c4.418,0,8-3.582,8-8v-8h72v32H128C123.582,64,120,67.582,120,72z M392,464H136
			V80h256V464z"/>
	</g>
</g>
<g>
	<g>
		<path d="M288,128V96h-48v32h-32v48h32v32h48v-32h32v-48H288z M304,160h-32v32h-16v-32h-32v-16h32v-32h16v32h32V160z"/>
	</g>
</g>
<g>
	<g>
		<path d="M168,256v48h48v-48H168z M200,288h-16v-16h16V288z"/>
	</g>
</g>
<g>
	<g>
		<path d="M168,320v48h48v-48H168z M200,352h-16v-16h16V352z"/>
	</g>
</g>
<g>
	<g>
		<path d="M168,384v48h48v-48H168z M200,416h-16v-16h16V416z"/>
	</g>
</g>
<g>
	<g>
		<rect x="248" y="272" width="112" height="16"/>
	</g>
</g>
<g>
	<g>
		<rect x="248" y="336" width="112" height="16"/>
	</g>
</g>
<g>
	<g>
		<rect x="248" y="400" width="112" height="16"/>
	</g>
</g>
<g>
</g>
<g>
</g>
<g>
</g>
<g>
</g>
<g>
</g>
<g>
</g>
<g>
</g>
<g>
</g>
<g>
</g>
<g>
</g>
<g>
</g>
<g>
</g>
<g>
</g>
<g>
</g>
<g>
</g>
</svg>
