<svg id="Layer_1" height="512" viewBox="0 0 512 512" width="512" xmlns="http://www.w3.org/2000/svg" data-name="Layer 1"><path d="m72.643 165.792c.046-.019 4.73-1.764 11.139 2.5a23.642 23.642 0 0 0 8.38 3.461c-.057.053-.115.1-.173.157-5.6 5.012-11.65 6.133-18.5 3.434a6 6 0 1 0 -4.4 11.164 30.929 30.929 0 0 0 11.391 2.285c15.172 0 25.476-12.669 29.3-20.873a6 6 0 0 0 -7.355-8.219c-.068.022-6.71 2.114-12-1.4-11.825-7.87-21.553-3.961-22.625-3.489a6 6 0 1 0 4.84 10.98z"/><path d="m23.534 247.053a16.248 16.248 0 0 0 14.236-2.476c35.964-26.045 60.08-14.272 66.614-10.043 11.243 7.276 17.988 17.111 25.129 27.524 7.337 10.7 15.366 22.395 29.107 32.12-.805 12.361 2.189 32.454 4.2 44.088a34.166 34.166 0 0 1 -.034 12.023c-2.219 12.1-6.058 21.247-10.807 25.768a5.868 5.868 0 0 0 -.464.5l-9.182 10.973a7.394 7.394 0 0 0 5.427 12.421h16.166l-.23.217a7.96 7.96 0 0 0 5.475 13.738h29.777a6 6 0 0 0 5.665-4.024l3.567-10.222a6.917 6.917 0 0 1 2.4-3.272l1.139-.851a19.037 19.037 0 0 0 6.735-20.815c-3.437-11.163-7.574-34.894 3.051-68.8a241.659 241.659 0 0 0 41.979 9.883 192.445 192.445 0 0 0 26.874 1.968c22.43 0 42.183-4.471 58.264-13.222a61.875 61.875 0 0 0 7.726 9.114 1.86 1.86 0 0 1 .535 1.92l-1.71 5.143a12.757 12.757 0 0 0 24.231 7.985l.24-.654a1.87 1.87 0 0 1 2.115-1.145 44.185 44.185 0 0 0 5.147.532 1.841 1.841 0 0 1 1.654 1.554l.463 2.557a12.783 12.783 0 0 0 8.751 9.755c.124.713.241 1.43.382 2.132a17 17 0 0 1 .163 5.968c-2.315 15.033-7.015 26.5-12.561 30.676l-13.427 10.052a7.4 7.4 0 0 0 3.588 13.283l29.959 3.478a7.408 7.408 0 0 0 7.524-4.124l4.1-8.457a8.342 8.342 0 0 1 3.328-3.582c7.5-4.355 8.744-12.211 9.747-18.523l.095-.6c.759-4.752 1.245-10.085 1.808-16.261.684-7.508 1.484-16.241 3.011-27.016 2.171 7.019 4.891 12.736 8.134 17a13.4 13.4 0 0 1 2.474 6.188 97.156 97.156 0 0 1 .484 19.291 26.556 26.556 0 0 1 -8.111 17.035l-6.752 6.482a8.939 8.939 0 0 0 6.054 15.388l31.763.471h.222a11.762 11.762 0 0 0 11.751-12.611 36.154 36.154 0 0 0 -4.665-15.358 4.449 4.449 0 0 1 -.583-1.878c-1.269-17.661.645-29.7 2.183-39.367 1.441-9.053 2.577-16.2.262-23.489-3-9.436-2.289-20.539-.141-30.912a51.089 51.089 0 0 1 .164 12.479c-.663 9.065-1.415 19.339 9.026 39.932a6 6 0 0 0 9.658 1.465c12.228-12.605 10.663-21.981 6.631-35.925a74.782 74.782 0 0 1 -1.945-24.9c2.485-19.564 4.5-48.176 2.008-64.425-1.512-9.851-.451-22.534-.09-26.186a43.869 43.869 0 0 0 -44.253-48.154 249.546 249.546 0 0 0 -27.047 2.2c-3.968.485-7.395.9-9.3.943-2.213.046-6.3.2-11.964.417-34.475 1.313-139.388 5.307-164.717-4.39-34.684-13.278-67.1-15.613-91.288-6.571-18.725 7-52.86 6.485-62.877 6.09-2.272-18.704-12.981-31.813-30.972-37.909a70.823 70.823 0 0 0 -25.725-3.436 6 6 0 0 0 -2.573 11.145c1.572.93 4.153 2.575 7.039 4.608a107.764 107.764 0 0 0 -16.184-.674 6 6 0 0 0 -2.643 11.247c5.411 2.988 18.849 11.446 26.687 20.037-7.269 3.936-13.649 9.545-14.224 17.808a8.851 8.851 0 0 1 -2.346 5.264c-7.131 7.986-8.584 19.827-8.879 24.48l-13.271 19.5a17.335 17.335 0 0 0 -3.436 17.487c3.399 9.248 9.446 15.452 17.489 17.943zm134.091 140.892 2.885-3.447c8.245-8.056 12.2-21.843 14.076-32.042a46.134 46.134 0 0 0 .056-16.231c-2.447-14.177-3.87-26.413-4.124-34.949 2.057 1.027 4.21 2.016 6.48 2.958 2.067 7.113 3.258 13.412 2.639 17.116-2.328 13.921 2.635 28.859 4.195 33.07a105.98 105.98 0 0 1 -1.057 14.38c-1.251 8.567-3.524 15.238-6.477 19.144zm229.81-72.494a31.984 31.984 0 0 1 -3.746-.387 13.9 13.9 0 0 0 -15.319 8.858l-.333.918a.718.718 0 0 1 -.394.44.762.762 0 0 1 -.617.017.73.73 0 0 1 -.455-.846l1.692-5.085a13.945 13.945 0 0 0 -3.58-14.335 49.723 49.723 0 0 1 -5.713-6.626 117.354 117.354 0 0 1 35.677-13.263c4.045 6.79 10.6 14.209 21.153 21.15a74.936 74.936 0 0 1 -6.766 3.868 13.725 13.725 0 0 0 -7.414 14.348l.651 4.332-1.451.517-.451-2.5a13.928 13.928 0 0 0 -12.934-11.406zm33.1 38.814c-.543 5.959-1.012 11.105-1.707 15.457l-.1.607c-.841 5.293-1.48 8.609-3.923 10.028a20.306 20.306 0 0 0 -8.1 8.719l-2.681 5.526-15.272-1.773 4.2-3.147c11.117-8.364 15.56-27.678 17.218-38.446a29.006 29.006 0 0 0 -.258-10.162c-.133-.664-.246-1.341-.361-2.016a12.6 12.6 0 0 0 4.565-12.081l-.638-4.248a1.753 1.753 0 0 1 .924-1.841 91.761 91.761 0 0 0 11.162-6.721c-2.93 17.093-4.085 29.733-5.031 40.098zm73.72-29.961c-4.5-11.412-4.035-17.745-3.55-24.375.016-.215.031-.431.047-.648a65.03 65.03 0 0 0 1.771 8.578c2.208 7.641 3.296 12.097 1.73 16.441zm-447.207-197.012c5.464 1.3 9.412 3.164 11.468 5.421a35.934 35.934 0 0 1 2.025 4.178 2.11 2.11 0 0 1 -.045 1.674 2.338 2.338 0 0 1 -.842.981 78.59 78.59 0 0 0 -12.606-12.254zm-28.538 92.25a6.062 6.062 0 0 0 .64-.789l14.491-21.3a6.061 6.061 0 0 0 1.039-3.36c.017-3.315 1.111-13.093 5.905-18.462a20.728 20.728 0 0 0 5.366-12.422c.267-3.833 6.567-8.254 17.282-12.128a14.417 14.417 0 0 0 8.2-7.591 14.034 14.034 0 0 0 .261-11.023 63.456 63.456 0 0 0 -6.5-11.728 46.172 46.172 0 0 0 -6.465-7.388c12.899 4.699 20.271 13.995 21.935 27.649a11.969 11.969 0 0 0 11.519 10.613c13.554.442 47.253.646 67.472-6.912 21.133-7.9 51.309-5.518 82.795 6.537 11.859 4.539 42.328 10.013 169.464 5.175 5.6-.213 9.648-.368 11.758-.412 2.509-.051 6.037-.482 10.5-1.028a239.392 239.392 0 0 1 25.747-2.113 31.868 31.868 0 0 1 32.158 34.973c-.508 5.134-1.509 18.256.17 29.189 2.158 14.058.524 40.813-2.052 61.092-.148 1.166-.257 2.42-.327 3.737a77.759 77.759 0 0 0 -5.342-15.61 115.566 115.566 0 0 0 5.756-47.115c-1.72-19.868-4.982-35.251-9.974-47.03a6 6 0 1 0 -11.048 4.683c4.429 10.452 7.48 25.048 9.067 43.381a103.95 103.95 0 0 1 -5.905 44.378c-5.6 15.59-11.039 38.062-5.151 56.584 1.454 4.573.56 10.192-.676 17.968-1.549 9.737-3.67 23.072-2.3 42.11a16.518 16.518 0 0 0 2.13 6.969 24.2 24.2 0 0 1 3.1 10.016l-24.119-.357 1.381-1.325a38.54 38.54 0 0 0 11.762-24.731 108.894 108.894 0 0 0 -.57-21.983 25.42 25.42 0 0 0 -4.8-11.725c-3.014-3.959-5.632-10.223-7.571-18.114-1.6-6.518-4.326-13.706-12.4-17.6-40.282-19.431-32.7-45.287-32.31-46.512a6 6 0 0 0 -11.376-3.818c-.334.982-3.133 9.88.242 21.861a129.021 129.021 0 0 0 -42.339 17.473c-42.275 26.907-104.9 8.947-122.756 2.944 10.5-47.3-16.078-67.524-17.3-68.42a6 6 0 0 0 -7.142 9.642c1.021.775 24.847 19.533 10.046 66.084-11.887 37.384-7.166 64.067-3.292 76.645a7.011 7.011 0 0 1 -2.454 7.673l-1.137.851a18.866 18.866 0 0 0 -6.541 8.929l-2.163 6.2h-15.381l3.81-3.611c13.114-12.484 12.787-41.842 12.707-45.148a5.977 5.977 0 0 0 -.445-2.127c-1.685-4.118-5.672-17.118-3.9-27.685 2.666-15.948-13.816-51.7-15.7-55.725a6 6 0 0 0 -10.864 5.1c2.03 4.327 4.375 9.78 6.595 15.517-15.651-8.983-23.685-20.69-32.091-32.948-7.5-10.929-15.245-22.23-28.506-30.812-32.25-20.87-69.518 2.683-80.172 10.4a4.2 4.2 0 0 1 -3.647.733c-4.4-1.362-7.686-4.935-9.775-10.619a5.266 5.266 0 0 1 1.193-5.435z"/></svg>