<svg id="Layer_1" enable-background="new 0 0 530.341 434.124" height="512" viewBox="0 0 530.341 434.124" width="512" xmlns="http://www.w3.org/2000/svg"><g><path d="m488.285 267.59c2.614 2.408 5.396 4.944 7.988 7.252 2.285-1.953 4.718-4.048 7.166-6.164-3.376-.213-8.593-.566-15.154-1.088z"/><path d="m505.948 282.797c4.547 2.586 25.31-11.459 24.361-16.832-.271-1.527-2.482-5.583-5.507-10.602-4.914 4.313-16.308 14.285-25.494 22.148 3.007 2.611 5.47 4.62 6.64 5.286z"/><path d="m75.812 246.718c14.155-7.756 33.848-12.187 48.911-14.619-.232.616-.469 1.232-.666 1.852-4.441 13.955 10.381 39.28 10.381 39.28s5.779 23.508.681 29.064c-.092.1-.195.228-.295.345-4.175.168-9.974.567-16.104 1.503-11.854 1.809-65.411 48.441-65.411 48.441l-17.033-.811v37.141s13.792-4.254 18.256-18.893c4.465-14.637 46.627-30.131 46.627-30.131l13.058-1.386c-.569 1.092-.901 1.735-.901 1.735l-9.539 8.072-10.23 28.369-19.287 32.037-15.721-1.988-7.424 4.555-.072 18.051s22.203-3.172 33.305-13.957c11.102-10.783 20.111-32.35 20.111-32.35l12.945-11.303 36.112-42.789s26.686 3.158 40.261-3.004c13.574-6.162 23.787-18.795 23.787-18.795s67.313 39.346 89.447 38.777c14.946-.384 33.125-7.404 43.363-11.927l7.132 10.341s21.542 46.965 24.716 54.895c1.247 3.119 2.776 13.238 3.488 19.031 1.1 8.935 4.775 15.867 4.775 15.867l30.773-9.863-8.246-12.053-13.699-3.805-21.267-72.069c18.663 5.939 44.564 14.567 49.335 18.147 7.613 5.709 41.603 37.428 41.603 37.428l6.816 21.799 22.484-1.613-7.496-17.762-16.353-14.533s-31.918-37.318-40.199-44.402-40.883-27.449-40.883-27.449l8.859-46.019 9.642-3.494c-30.632-5.204-60.257-12.574-75.2-23.51-.89-.655-1.081-1.908-.426-2.797.654-.89 1.906-1.079 2.796-.424 14.655 10.877 47.597 18.78 80.325 23.912l.001.001c-1.092-.174-2.116.572-2.287 1.664-.173 1.089.569 2.108 1.656 2.284.003 0 .005.002.008.002 23.657 3.739 47.228 6.142 64.167 7.578-1.097-.097-1.908-1.061-1.816-2.159.093-1.102 1.059-1.917 2.161-1.825h.002l-.001-.001c-16.829-1.425-40.238-3.814-63.693-7.513l24.865-9.01 32.988 10.783s2.549 2.42 6.135 5.765c13.64 1.152 22.852 1.667 24.23 1.742 1.198-1.041 2.381-2.069 3.527-3.067 4.85-4.223 9.063-7.915 11.39-9.958-7.645-12.327-18.267-27.919-18.267-27.919l-3.406-12.916s-12.537-21.148-25.209-31.486c-5.053-4.121-8.631-3.066-20.285-4.945-3.242-.523-16.922-10.578-20.143-11.262-14.256-3.021-16.652 2.379-16.652 2.379l15.385 10.072-18.795.475-44.37 9.506c-3.02-5.583-8.358-9.722-14.723-11.141-.971-2.999-3.671-5.265-7.009-5.515-.507-.04-1.004-.089-1.499-.138 5.892-6.665 13.763-15.119 24.305-25.801 6.857-6.935 9.968-14.816 9.95-22.884-.129-18.334-15.192-37.135-34.632-52.897-.146 1.608-.322 3.177-.515 4.723 18.008 15.071 31.271 32.72 31.145 48.175-.015 7.052-2.582 13.741-8.798 20.076-11.667 11.841-20.107 20.968-26.229 27.983-17.038-2.809-26.738-10.905-32.956-18.74-1.387-1.777-2.561-3.544-3.566-5.232-.692 2.335-1.697 4.604-3.002 6.671-.761 1.461-1.57 2.994-2.408 4.583-.86 1.628-1.754 3.321-2.658 5.058 6.817 8.401 17.463 16.879 32.679 21.36-5.031 4.079-8.25 10.308-8.251 17.29 0 2.429.396 4.764 1.114 6.952l-10.88 8.729c.106.876.21 1.778.31 2.706 2.135 3.764 2.492 8.354.867 12.473.573 19.954-3.077 42.897-22.774 43.459-.626.018-1.257.026-1.892.03l-5.556 9.724c-2.574 4.511-7.403 7.311-12.602 7.311-2.51 0-4.993-.661-7.184-1.915-6.837-3.908-9.275-12.573-5.557-19.467-10.142-2.754-19.913-6.674-28.1-11.337-7.735 6.828-18.033 10.995-29.34 10.995-24.023 0-43.498-18.803-43.498-41.998 0-9.956 3.596-19.097 9.591-26.295-7.182.202-13.079.842-15.942 2.121-3.08 1.376-6.624 3.735-10.15 6.762-12.82-3.087-33.863-7.53-44.881-6.444-13.951 1.373-47.359 17.646-58.521 18.555-11.16.908-36.842-.841-37.769 3.782-.923 4.626 49.701 35.503 75.803 21.2zm402.732-36.924 14.084 10.662s-6.17 6.289-12.379 1.711-1.705-12.373-1.705-12.373zm-145.434-13.417c.009-4.878 1.934-9.294 5.049-12.566 3.119.6 6.397 1.043 9.85 1.291.204.016.409.023.61.023 1.902 0 3.665-.679 5.051-1.813 2.268 1.225 4.235 2.924 5.798 4.952l-17.82 3.818-8.356 6.705c-.107-.791-.18-1.591-.182-2.41zm33.688-9.684-3.057.655c-1.938-3.007-4.576-5.516-7.689-7.295.151-.384.269-.785.359-1.196 4.353 1.258 8.027 4.086 10.387 7.836zm-40.022 12.684c.004-2.211.419-4.32 1.141-6.28.107.039.218.073.334.094.115.02.23.03.345.03.267 0 .523-.059.761-.157-.161 1.081-.247 2.188-.247 3.314 0 1.812.223 3.571.632 5.258l-2.448 1.964c-.324-1.358-.515-2.767-.518-4.223z"/><path d="m307.557 205.507c-1.67.22-3.849.497-6.431.8l7.561 6.377c-.358-2.651-.748-5.082-1.13-7.177z"/><path d="m291.847 269.657c4.832-.267 8.598-2.173 11.472-5.85 4.659-5.957 6.477-15.83 6.821-26.163z"/><path d="m252.912 168.024 1.435.39-.139 1.48-.268 2.863 2.512.809.651.211.343.594 6.534 11.407.171.301.045.341.457 3.414.381.665c.468-.097.902-.203 1.295-.32.694-.206 1.418-.237 2.143-.093 1.866.37 3.708 2.061 5.447 4.472 3.114-.694 5.631-1.434 7.242-1.957 1.32-.426 2.008-.696 2.01-.696h.002c.064-.025.131-.036.196-.054 3.763-15.256 12.487-30.56 18.309-41.76 1.535-2.414 2.609-5.114 3.228-7.852-6.17 3.547-10.876 5.012-12.204 5.38-.88.233-1.739.343-2.598.343-4.532 0-8.507-3.063-9.665-7.451-1.398-5.309 1.774-10.782 7.072-12.203l.104-.037c.172-.055.489-.158.917-.314.846-.307 2.204-.852 3.898-1.697 1.368-.683 3.061-1.628 4.936-2.848-7.749-3.197-19.487-1.419-27.692 10.143-8.61 12.289-13.687 21.974-17.259 34.337z"/><path d="m260.522 270.052c-3.426 5.995-1.343 13.632 4.649 17.058 1.957 1.118 4.089 1.649 6.191 1.649 4.341 0 8.559-2.263 10.866-6.302l29.333-51.333c2.992-5.243 1.82-11.865-2.795-15.758l-23.701-19.985c-.136.098-.281.187-.444.25-.066.022-3.312 1.284-8.451 2.515 4.011 7.22 7.199 17.24 8.42 21.356l.576 1.938-1.944.556c-.129.035-1.829.503-4.528.714l5.993 5.053z"/><path d="m326.25 74.364c-7.716-4.369-17.103-7.582-27.523-6.814-26.926 1.984-35.058 22.344-36.896 29.319-.099.377-.185.725-.249 1.019-1.334 6.066 8.764 0 14.096-3.557 1.725-1.15 4.335-2.54 7.465-3.853-.06.228-.124.454-.178.685-2.816 12.1 4.709 24.193 16.809 27.008 1.269.296 2.539.472 3.798.546.572-.499 1.147-1.016 1.727-1.564 10.877-10.39 17.892-24.76 20.951-42.789z"/><path d="m326.716 71.484c.397-2.775.705-5.633.921-8.573.099-1.373.481-2.665 1.08-3.828l-.083-.321c.064.041.127.083.19.125.647-1.191 1.522-2.237 2.573-3.075-10.969-7.19-22.416-13.26-33.049-17.59.08-.091.166-.191.233-.261.112-.116.2-.202.256-.253s.058-.049.058-.049c.844-.71.955-1.972.245-2.817-.711-.848-1.973-.957-2.817-.247h-.002c-.059.08-.923.775-1.802 2.017-.305-.17-.642-.356-1.003-.556.08-.091.166-.191.233-.261.109-.116.199-.202.255-.253.056-.052.058-.049.056-.052.845-.709.956-1.971.247-2.815-.713-.847-1.974-.956-2.818-.247h-.002c-.054.072-.772.653-1.563 1.691-18.16-9.591-69.724-34.086-123.561-34.119-34.223-.019-69.518 10.011-97.23 40.299-3.93 4.318-6.016 8.074-6.053 11.744-.021 2.569 1.2 4.887 3.128 6.542 5.789 4.879 17.351 6.295 32.624 6.378 25.869-.004 62.082-4.929 94.123-10.936 16.019-3.005 30.981-6.282 43.068-9.361 12.107-3.091 21.252-5.925 25.973-8.247 1.75-.873 4.239-1.36 7.313-1.356 5.011-.024 11.431 1.273 18.61 3.607-.075.449-.129.916-.139 1.41 0 .845.127 1.746.425 2.662.272.847 1.059 1.386 1.903 1.386.203 0 .41-.031.614-.097 1.051-.341 1.628-1.467 1.289-2.518-.165-.512-.229-.98-.232-1.433 0-.026.007-.051.008-.077.35.127.696.249 1.049.38-.126.582-.21 1.201-.223 1.863 0 .845.126 1.747.425 2.663.273.846 1.058 1.385 1.902 1.385.203 0 .41-.031.614-.097 1.052-.339 1.629-1.468 1.29-2.517-.165-.513-.229-.98-.231-1.433-.001-.129.027-.254.038-.381 4.974 2.018 10.168 4.436 15.418 7.186-1.698-.322-3.51-.595-5.46-.778-13.428-1.256-23.75 10.25-23.75 10.25l-3.148 11.501c4.958-2.902 11.188-5.036 19.014-5.613 10.629-.784 20.189 2.57 27.991 7.072zm-57.407-40.422c-3.477.004-6.545.52-9.088 1.772-4.086 2.034-13.224 4.918-25.184 7.957-35.938 9.162-98.101 20.185-136.205 20.174-9.954.004-18.27-.767-23.856-2.418-2.795-.816-4.879-1.861-6.133-2.97-1.257-1.135-1.739-2.155-1.762-3.533-.036-1.965 1.348-5.083 5-9.042 26.852-29.309 60.789-38.983 94.282-39.003 32.697-.006 64.849 9.322 88.787 18.676 7.912 3.091 14.93 6.182 20.775 8.935-2.349-.352-4.564-.54-6.616-.548z"/><path d="m348.443 97.259c1.403-.898.869-2.346.247-3.332-.392-.621-.817-1.06-.817-1.06s-1.455-1.913-4.099-4.679c-.744 2.845-1.568 5.554-2.461 8.131 3.614 1.017 6.258 1.499 7.13.94z"/><path d="m293.326 128.045c-1.755.876-3.178 1.451-4.106 1.79-.463.168-.807.28-1.004.343-.099.031-.161.05-.188.058-4.245 1.141-6.777 5.504-5.654 9.764.946 3.588 4.186 5.962 7.73 5.962.676.001 1.36-.086 2.044-.267.843-.233 12.852-3.498 25.523-15.467 12.688-11.924 25.604-32.754 27.919-66.031.311-4.408-3.005-8.234-7.41-8.549-4.409-.315-8.235 3.001-8.55 7.41-2.188 29.721-13.023 46.057-22.959 55.549-4.991 4.726-9.83 7.686-13.345 9.438z"/><path d="m237.543 180.492c-1.252 1.383-1.553 3.453-.575 5.16 1.214 2.12 3.92 2.854 6.039 1.64.232-.134.441-.293.64-.456 1.54 1.672 3.012 3.307 4.177 4.612 4.529.06 10.856-.003 15.356-.634l-.228-.397-.505-3.761-6.536-11.408-3.86-1.24.398-4.277-1.776-.482-1.351 4.973-3.5 2.008-3.181-.579s-4.302-5.936-9.712-5.689c-5.407.25-16.062 1.555-16.062 1.555l6.6 11.52s8.551-6.549 11.571-4.679c.562.345 1.444 1.114 2.505 2.134zm4.817 5.67c-1.494.857-3.408.336-4.263-1.158-.681-1.186-.482-2.628.372-3.604 1.315 1.311 2.81 2.881 4.29 4.475-.125.102-.254.202-.399.287z"/><path d="m282.675 220.073s-8.914-30.014-15.775-27.978c-6.861 2.038-24.791 1.201-24.791 1.201 13.415 34.519 40.566 26.777 40.566 26.777z"/><path d="m163.186 223.59c0 22.396 18.803 40.55 41.998 40.55 14.152 0 26.66-6.766 34.27-17.122-1.646 2.932-3.645 5.651-5.938 8.11 7.825 4.347 17.222 8.091 27.116 10.698l21.491-37.608-6.415-5.408c-1.864-.02-3.986-.191-6.278-.646-6.075-1.204-13.675-4.479-20.369-12.601-1.522-.01-3.024-.03-4.488-.065-.533-1.389-1.149-2.738-1.831-4.051-6.896-13.283-21.119-22.406-37.558-22.406-7.388 0-14.326 1.848-20.356 5.082-12.905 6.919-21.642 20.205-21.642 35.467zm41.59 18.871c-12.426 0-22.5-10.073-22.5-22.5s10.074-22.5 22.5-22.5 22.5 10.073 22.5 22.5c0 12.426-10.074 22.5-22.5 22.5z"/></g></svg>