<svg id="Layer_1" enable-background="new 0 0 358.185 315.736" height="512" viewBox="0 0 358.185 315.736" width="512" xmlns="http://www.w3.org/2000/svg"><g><path d="m126.59 225.612c14.537-8.615 47-5.784 70.094-1.78l6.314 57.356c.446 4.019 3.812 7.068 7.855 7.105h.081c4.006 0 7.393-2.969 7.908-6.951l7.5-57.86c3.719-5.698 15.399-.636 27.234 3.426l2.768 14.995c12.366-4.155 22.932-5.975 27.942-1.542 16.022 14.179 15.266 26.315 19.123 31.667s19.026 7.327 19.102-6.121c.063-10.179 10.397-32.684 13.515-47.534 5.798.826 9.784 3.091 9.932-.04.14-2.947-3.699-5.616-9.059-6.645.029-1.518-.116-2.847-.463-3.955 3.428-3.598 5.021-6.175 2.981-8.256-1.763-1.796-5.345-1.328-9.091.852-10.802-8.621-47.469-62.506-53.558-67.06l-7.037 19.025-4.297-25.692c-13.333-13.333-63.087-16.052-67.333-15.666 0 0-57.248-1.534-96-5.333-25.055-2.457-49.682 8.986-65.365 12.023-11.348-.722-18.292 3.219-22.405 5.412-4.274 2.279-6.266 6.553-7.409 13.678l-2.554 57.242c-2.576.824-4.449 3.955-4.364 12.492.101 10.227 2.968 24.327 6.33 24.291 3.361-.032 5.949-14.185 5.848-24.408-.081-8.161-1.85-11.349-4.269-12.29.587-28.203 6.227-53.53 6.227-53.53l8.289-6.215c.242 11.392 1.447 30.696 4.791 48.279l-11.437 41.969c-.385 1.424-.375 2.904.041 4.323l16.492 56.716c1.006 3.447 4.157 5.75 7.652 5.75.417 0 .835-.032 1.257-.101 3.97-.625 6.853-4.108 6.727-8.131l-1.145-36.693 23.481 40.915c1.46 2.546 4.148 4.006 6.934 4.006 1.05 0 2.12-.211 3.139-.649 3.718-1.602 5.653-5.758 4.481-9.631l-14.032-46.485 4.027-5.385c18.587 3.589 38.703 4.162 51.753-3.569zm188.177-2.008c2.016-1.84 5.141-1.693 6.978.32 1.839 2.016 1.697 5.138-.319 6.978-2.016 1.839-5.138 1.696-6.978-.32-1.837-2.013-1.697-5.139.319-6.978z"/><path d="m353.984 303.863c0-.662-1.091-.662-1.091-1.324 0-.663.674-.663.674-1.326 0-.664 4.375-.664 4.375-1.327 0-.665-2.007-.633-2.472-1.108-.454-.465-.424-.119-1.073-.119s-.65 2.182-1.3 2.182c-.648 0-.648-2.927-1.296-2.927-.647 0-.647 1.191-1.294 1.191-.644 0-.644-1.798-1.287-1.798-.645 0-.645 4.622-1.29 4.622s-.645-1.412-1.291-1.412-.646-3.039-1.293-3.039c-.644 0-.644 1.75-1.288 1.75s-.644-3.455-1.288-3.455c-.646 0-.646 2.546-1.291 2.546-.643 0-.643-1.091-1.285-1.091s-.642 4.677-1.283 4.677c-.642 0-.642-6.21-1.285-6.21-.645 0-.645 3.391-1.289 3.391-.267 0-.422.168-.559.363.945-9.09 4.657-17.858 4.657-17.858s-4.718 4.734-7.905 14.252c-.016-.007-.03-.023-.047-.023-.644 0-.644 2.651-1.288 2.651-.643 0-.643-.902-1.286-.902s-.643 3.802-1.286 3.802-.643-4.695-1.286-4.695c-.644 0-.644-.486-1.288-.486s-.644 5.343-1.287 5.343c-.222 0-.365-.134-.486-.305-.251-14.304 6.66-30.624 6.66-30.624s-10.121 10.133-13.573 30.584c-.086.166-.187.271-.313.271-.643 0-.643-1.034-1.286-1.034-.642 0-.642-1.174-1.284-1.174-.641 0-.641-1.966-1.282-1.966-.232 0-.379.312-.504.704-3.631-11.856-9.508-17.741-9.508-17.741s3.254 7.684 4.79 16.574c-.546.462-.579 4.778-1.186 4.778-.642 0-.642-2.011-1.284-2.011-.643 0-.643 1.03-1.286 1.03s-.643-4.64-1.286-4.64c-.288 0-.447.534-.592 1.123-3.526-13.382-10.156-20.021-10.156-20.021s5.034 11.892 5.534 23.204c-.542-.097-.582-.982-1.186-.982-.638 0-.638-2.552-1.277-2.552-.638 0-.638 2.142-1.276 2.142-.049 0-.093.021-.135.052-3.78-18.948-13.16-28.342-13.16-28.342s5.797 13.698 6.577 26.994c-.333.137-.445.452-.947.452-.64 0-.64-.946-1.281-.946-.618 0-.642 2.531-1.218 2.71-3.03-12.167-9.048-18.222-9.048-18.222s4.219 9.971 4.804 19.671c-.339-.7-.446-2.368-.953-2.368-.641 0-.641-3.567-1.282-3.567s-.641.51-1.282.51-.641 5.039-1.281 5.039c-.641 0-.641-5.146-1.281-5.146-.641 0-.641.838-1.281.838-.641 0-.641 3.886-1.281 3.886-.641 0-.641-1.36-1.282-1.36s-.641-1.337-1.282-1.337-.641.788-1.283.788-.642 3.166-1.284 3.166-.642-6.328-1.284-6.328-.642 1.898-1.283 1.898-.641 2.595-1.282 2.595-.641-2.827-1.282-2.827-.641.558-1.281.558-.64-1.293-1.281-1.293c-.64 0-.64-.914-1.28-.914s-.64 4.25-1.28 4.25-.64 1.779-1.28 1.779-.64-2.472-1.28-2.472-.64-3.281-1.28-3.281-.64 4.441-1.28 4.441-.64-2.907-1.28-2.907-.64 2.842-1.281 2.842-.641-2.87-1.281-2.87c-.641 0-.641.713-1.282.713s-.641 3.604-1.282 3.604-.641-6.161-1.283-6.161-.642 6.453-1.284 6.453c-.641 0-.641-.135-1.283-.135-.641 0-.641-5.71-1.282-5.71s-.641 4.443-1.281 4.443-.64.788-1.281.788c-.64 0-.64-3.163-1.28-3.163s-.64.233-1.28.233-.64 1.763-1.279 1.763-.639-2.877-1.279-2.877c-.639 0-.639 4.701-1.278 4.701s-.639-5.762-1.278-5.762-.639 5.705-1.278 5.705-.639-.728-1.278-.728-.639.029-1.278.029-.639-4.89-1.278-4.89-.639 1.837-1.278 1.837-.639 2.672-1.278 2.672-.639-1.489-1.278-1.489-.639-3.525-1.279-3.525c-.639 0-.639.484-1.279.484s-.64.195-1.279.195c-.64 0-.64-.645-1.28-.645s-.64.614-1.28.614-.64 1.264-1.281 1.264-.641.206-1.281.206c-.641 0-.641-.476-1.282-.476s-.641 2.841-1.282 2.841-.641-4.881-1.282-4.881-.641 5.95-1.282 5.95-.641-4.151-1.281-4.151-.64-.233-1.28-.233-.64 4.683-1.28 4.683-.64-4.898-1.279-4.898-.639 3.475-1.279 3.475c-.639 0-.639-1.831-1.278-1.831s-.639-1.817-1.278-1.817-.639.44-1.277.44-.638 1.764-1.277 1.764c-.638 0-.638 1.14-1.276 1.14s-.638 2.193-1.276 2.193-.638-.89-1.276-.89-.638-5.07-1.276-5.07-.638 3.468-1.275 3.468-.638-.116-1.275-.116c-.638 0-.638 1.393-1.275 1.393s-.638-5.063-1.275-5.063-.637.556-1.275.556c-.637 0-.637 2.256-1.275 2.256s-.637-1.895-1.275-1.895-.637 3.49-1.275 3.49-.638 1.38-1.275 1.38-.638-3.671-1.275-3.671c-.638 0-.638-1.225-1.275-1.225-.638 0-.638.879-1.275.879-.638 0-.638 1.484-1.276 1.484s-.638-.991-1.276-.991-.638-.781-1.276-.781-.638 4.654-1.276 4.654-.638-3.733-1.277-3.733-.639 3.445-1.277 3.445c-.639 0-.639.194-1.277.194-.639 0-.639-1.178-1.278-1.178s-.639-2.552-1.278-2.552-.639-1.735-1.279-1.735-.64 5.498-1.279 5.498c-.64 0-.64-3.268-1.28-3.268s-.64 1.804-1.28 1.804c-.641 0-.641-1.599-1.281-1.599-.641 0-.641-3.069-1.281-3.069s-.64 3.81-1.28 3.81-.64-.675-1.28-.675c-.639 0-.639-1.369-1.279-1.369-.639 0-.639.901-1.278.901s-.639-1.635-1.278-1.635-.639 4.413-1.277 4.413-.638-4.338-1.277-4.338c-.638 0-.638 2.439-1.276 2.439s-.638.354-1.276.354-.638-2.953-1.275-2.953-.637 3.701-1.275 3.701c-.637 0-.637.901-1.274.901s-.637-5.736-1.274-5.736-.637 6.085-1.274 6.085-.637-4.688-1.273-4.688-.636 4.566-1.273 4.566c-.636 0-.636-3.091-1.273-3.091-.636 0-.636.701-1.272.701s-.636-3.728-1.272-3.728-.636 2.961-1.272 2.961-.636 1.77-1.271 1.77c-.636 0-.636 1.623-1.271 1.623s-.635-3.023-1.271-3.023c-.635 0-.635-2.844-1.271-2.844-.635 0-.635.955-1.271.955s-.635 2.236-1.271 2.236c-.635 0-.635-1.137-1.27-1.137s-.635 2.616-1.27 2.616-.635-4.121-1.27-4.121-.635.751-1.27.751-.635 3.378-1.27 3.378-.635 1.298-1.27 1.298-.635-2.465-1.27-2.465-.635-4.152-1.27-4.152-.635 6.509-1.27 6.509-.635-.814-1.27-.814-.635-3.488-1.27-3.488-.635-1.547-1.27-1.547-.635-.268-1.27-.268-.635.286-1.27.286-.635.269-1.271.269c-.635 0-.635 1.821-1.271 1.821-.635 0-.635-1.05-1.271-1.05-.635 0-.635 4.945-1.271 4.945s-.636-6.454-1.271-6.454c-.636 0-.636 3.989-1.271 3.989-.636 0-.636-1.267-1.271-1.267-.636 0-.636 2.286-1.272 2.286s-.636-4.62-1.272-4.62-.636 4.07-1.272 4.07-.636-2.303-1.273-2.303c-.636 0-.636 2.512-1.273 2.512s-.637-.439-1.273-.439c-.637 0-.637-2.578-1.273-2.578-.637 0-.637-.764-1.274-.764s-.637 2.909-1.274 2.909-.637-.388-1.274-.388-.637 1.597-1.275 1.597-.638-4.626-1.275-4.626c-.638 0-.638 2.349-1.276 2.349s-.638 2.485-1.276 2.485-.638.06-1.276.06-.638-3.277-1.277-3.277-.639-.447-1.278-.447-.639 4.247-1.278 4.247-.639-5.646-1.279-5.646c-.639 0-.639 5.879-1.279 5.879-.639 0-.639.147-1.279.147-.639 0-.639-2.369-1.278-2.369s-.639-3.536-1.278-3.536-.639 4.12-1.278 4.12-.639-4.6-1.278-4.6-.639 5.422-1.277 5.422-.639.187-1.277.187-.638.634-1.277.634c-.638 0-.638-.193-1.277-.193-.638 0-.638-4.428-1.277-4.428-.638 0-.638 4.887-1.276 4.887s-.638.127-1.276.127-.638-.049-1.276-.049-.638-3.539-1.276-3.539-.638-.726-1.276-.726-.638.164-1.276.164-.638-1.555-1.276-1.555-.638 5.856-1.276 5.856-.638-.716-1.276-.716-.638-1.635-1.276-1.635-.638-1.498-1.275-1.498-.638-1.804-1.275-1.804c-.638 0-.638-.606-1.275-.606-.638 0-.638 3.445-1.275 3.445-.638 0-.638 2.463-1.275 2.463s-.638-3.452-1.275-3.452c-.638 0-.638.466-1.275.466s-.638 2.607-1.275 2.607c-.638 0-.638-5.899-1.275-5.899-.638 0-.638 2.975-1.275 2.975s-.638 1.082-1.275 1.082-.638-3.362-1.275-3.362-.638 5.651-1.276 5.651-.638-4.691-1.276-4.691-.638 5.005-1.276 5.005-.638-.014-1.276-.014-.638-2.263-1.276-2.263-.638-1.926-1.276-1.926-.638.754-1.276.754-.638-.197-1.276-.197-.638-1.641-1.276-1.641-.638.619-1.276.619-.638.454-1.277.454c-.638 0-.638-.931-1.277-.931-.638 0-.638 1.262-1.277 1.262s-1.551-.698-1.992-.236c-.462.483 3.924 1.351 3.924 2.02 0 .668-.313.668-.313 1.337 0 .667-6.077.667-6.077 1.333s.004.666.004 1.331c0 .662 4.71.662 4.71 1.324 0 .663-4.553.663-4.553 1.326 0 .664 2.091.664 2.091 1.327 0 .665-.736 2.027-.271 2.502.379.387 1.409-.962 2.119-1.423v6.785h345.18v-9.985c.859-.137 1.569-.296 1.569-.557-.006-.658-4.207-.658-4.207-1.324z"/><path d="m282.229 29.788c4.69-4.103 12.273-.706 14.989.906 1.597-2.726 6.59-9.365 12.68-8.045-6.482-7.295-13.765 3.842-13.765 3.842s-11.761-6.225-13.904 3.297z"/><path d="m310.244 41.834c4.69-4.105 12.272-.707 14.989.906 1.596-2.727 6.59-9.367 12.679-8.046-6.481-7.296-13.764 3.841-13.764 3.841s-11.763-6.222-13.904 3.299z"/><path d="m328.63 6.32s-11.763-6.223-13.904 3.298c4.691-4.104 12.272-.707 14.989.906 1.596-2.727 6.588-9.368 12.68-8.045-6.482-7.298-13.765 3.841-13.765 3.841z"/><path d="m190.937 71.579c.641-1.779 1.809-3.302 3.321-4.383-8.244-2.213-14.321-9.716-14.321-18.659 0-10.682 8.658-19.34 19.34-19.34 8.837 0 16.273 5.932 18.583 14.027-2.683 2.13-4.888 4.833-6.431 7.926 5.161.19 9.69 2.852 12.417 6.855-2.825-2.712-6.654-4.388-10.88-4.388-7.419 0-13.622 5.146-15.275 12.06.621-.132 1.265-.204 1.926-.204 5.1 0 9.233 4.133 9.233 9.232 0 .316-.016.628-.047.936-.469-4.66-4.402-8.297-9.186-8.297s-8.718 3.637-9.187 8.297c-.031.308-.047.62-.047.936 0 5.102 4.135 9.234 9.234 9.234 2.416 0 4.608-.935 6.254-2.454 2.134 1.083 4.54 1.706 7.096 1.706 3.214 0 6.2-.968 8.69-2.623 3.227 1.673 6.889 2.623 10.774 2.623.335 0 .667-.011.998-.025 12.493-.524 22.463-10.814 22.463-23.436 0-12.62-9.969-22.908-22.463-23.432-.331-.014-.663-.025-.998-.025-3.594 0-6.998.811-10.042 2.255-3.356-9.53-12.433-16.363-23.111-16.363-13.531 0-24.5 10.969-24.5 24.5 0 10.602 6.735 19.63 16.159 23.042z"/><path d="m330.218 84.743c1.19 2.199 1.867 4.716 1.867 7.392 0 4.41-1.844 8.383-4.792 11.214 1.698-2.492 2.693-5.502 2.693-8.745 0-8.59-6.963-15.553-15.553-15.553-4.182 0-7.971 1.659-10.766 4.344-2.106 2.023-3.635 4.631-4.341 7.565-.4-.053-.805-.091-1.219-.091-5.045 0-9.134 4.09-9.134 9.135s4.089 9.135 9.134 9.135c2.478 0 4.722-.991 6.368-2.593 2.698 2.252 6.169 3.61 9.958 3.61 3.667 0 7.03-1.276 9.689-3.399 2.286 2.104 5.328 3.399 8.68 3.399 7.09 0 12.838-5.746 12.838-12.836 0-7.089-5.748-12.837-12.838-12.837-.885 0-1.749.089-2.584.26z"/><path d="m248.216 80.578c2.379 2.742 5.882 4.485 9.797 4.485 7.168 0 12.978-5.811 12.978-12.977 0-7.168-5.81-12.979-12.978-12.979-.087 0-.17.011-.257.013.086.815.132 1.643.132 2.481 0 7.803-3.813 14.712-9.672 18.977z"/></g></svg>