<?xml version="1.0" encoding="UTF-8" standalone="no"?>
<!-- Created with Inkscape (http://www.inkscape.org/) -->

<svg
   version="1.1"
   id="svg3441"
   xml:space="preserve"
   width="682.66669"
   height="682.66669"
   viewBox="0 0 682.66669 682.66669"
   xmlns="http://www.w3.org/2000/svg"
   xmlns:svg="http://www.w3.org/2000/svg"><defs
     id="defs3445"><clipPath
       clipPathUnits="userSpaceOnUse"
       id="clipPath3455"><path
         d="M 0,512 H 512 V 0 H 0 Z"
         id="path3453" /></clipPath></defs><g
     id="g3447"
     transform="matrix(1.3333333,0,0,-1.3333333,0,682.66667)"><g
       id="g3449"><g
         id="g3451"
         clip-path="url(#clipPath3455)"><g
           id="g3457"
           transform="translate(291.7148,233.8296)"><path
             d="m 0,0 92.765,-24.737 c 26.532,-7.075 44.993,-31.104 44.993,-58.563 V -226.33 H -209.187 V -83.3 c 0,27.459 18.46,51.488 44.992,58.563 L -71.43,0 Z"
             style="fill:#f5f5f5;fill-opacity:1;fill-rule:nonzero;stroke:none"
             id="path3459" /></g><g
           id="g3461"
           transform="translate(396.166,204.6436)"><path
             d="m 0,0 c 2.773,-6.972 4.287,-14.537 4.287,-22.385 v -174.759 h 29.02 v 143.03 C 33.307,-30.9 20.111,-10.14 0,0"
             style="fill:#dfdfdf;fill-opacity:1;fill-rule:nonzero;stroke:none"
             id="path3463" /></g><g
           id="g3465"
           transform="translate(194.3647,226.9175)"><path
             d="m 0,0 v -79.907 l 34.974,-55.523 v -83.987 H -57.564 V -15.35 Z"
             style="fill:#595959;fill-opacity:1;fill-rule:nonzero;stroke:none"
             id="path3467" /></g><g
           id="g3469"
           transform="translate(317.6357,226.9175)"><path
             d="m 0,0 v -79.907 l -34.975,-55.523 v -83.987 H 57.563 V -15.35 Z"
             style="fill:#595959;fill-opacity:1;fill-rule:nonzero;stroke:none"
             id="path3471" /></g><g
           id="g3473"
           transform="translate(193.3701,277.4995)"><path
             d="m 0,0 v -39.684 c 0,-21.526 11.417,-41.437 29.997,-52.31 l 32.633,-19.098 32.634,19.098 c 18.578,10.873 29.996,30.784 29.996,52.31 v 39.71 z"
             style="fill:#ec6161;fill-opacity:1;fill-rule:nonzero;stroke:none"
             id="path3475" /></g><g
           id="g3477"
           transform="translate(193.3701,249.6162)"><path
             d="m 0,0 c 17.286,-13.521 39.033,-21.591 62.63,-21.591 23.597,0 45.344,8.07 62.63,21.591 V 27.91 L 0,27.883 Z"
             style="fill:#e64343;fill-opacity:1;fill-rule:nonzero;stroke:none"
             id="path3479" /></g><g
           id="g3481"
           transform="translate(348.9346,410.5547)"><path
             d="m 0,0 -22.421,77.228 c -2.875,9.904 -11.947,16.717 -22.261,16.717 h -17.067 c -5.767,0 -11.326,-2.149 -15.593,-6.028 -8.842,-8.038 -22.344,-8.038 -31.185,0 -4.267,3.879 -9.827,6.028 -15.593,6.028 h -17.067 c -10.313,0 -19.386,-6.813 -22.262,-16.717 L -185.87,0 Z"
             style="fill:#d57e4b;fill-opacity:1;fill-rule:nonzero;stroke:none"
             id="path3483" /></g><g
           id="g3485"
           transform="translate(326.5137,487.7827)"><path
             d="M 0,0 C -2.875,9.904 -11.947,16.717 -22.261,16.717 H -38.423 C -28.11,16.717 -19.038,9.904 -16.162,0 L 6.259,-77.228 h 16.162 z"
             style="fill:#c56e37;fill-opacity:1;fill-rule:nonzero;stroke:none"
             id="path3487" /></g><g
           id="g3489"
           transform="translate(171.2769,438.8394)"><path
             d="m 0,0 -8.212,-28.285 h 185.87 L 169.447,0 Z"
             style="fill:#595959;fill-opacity:1;fill-rule:nonzero;stroke:none"
             id="path3491" /></g><g
           id="g3493"
           transform="translate(340.7236,438.8394)"><path
             d="m 0,0 h -16.163 l 8.212,-28.285 H 8.211 Z"
             style="fill:#434343;fill-opacity:1;fill-rule:nonzero;stroke:none"
             id="path3495" /></g><g
           id="g3497"
           transform="translate(174.3657,380.25)"><path
             d="m 0,0 v -50.387 c 0,-45.086 36.549,-81.634 81.634,-81.634 45.085,0 81.635,36.548 81.635,81.634 V 0 Z"
             style="fill:#fcd0a3;fill-opacity:1;fill-rule:nonzero;stroke:none"
             id="path3499" /></g><g
           id="g3501"
           transform="translate(337.6348,329.8628)"><path
             d="m 0,0 v 50.387 h -19.389 v -71.723 c 0,-15.931 -4.58,-30.785 -12.47,-43.348 C -12.491,-49.757 0,-26.343 0,0"
             style="fill:#ffb983;fill-opacity:1;fill-rule:nonzero;stroke:none"
             id="path3503" /></g><g
           id="g3505"
           transform="translate(353.9609,330.9756)"><path
             d="M 0,0 H -16.326 V 49.274 H 0 c 5.636,0 10.204,-4.568 10.204,-10.204 V 10.205 C 10.204,4.569 5.636,0 0,0"
             style="fill:#fcd0a3;fill-opacity:1;fill-rule:nonzero;stroke:none"
             id="path3507" /></g><g
           id="g3509"
           transform="translate(158.0391,330.9756)"><path
             d="M 0,0 H 16.327 V 49.274 H 0 c -5.636,0 -10.205,-4.568 -10.205,-10.204 V 10.205 C -10.205,4.569 -5.636,0 0,0"
             style="fill:#fcd0a3;fill-opacity:1;fill-rule:nonzero;stroke:none"
             id="path3511" /></g><g
           id="g3513"
           transform="translate(392.415,428.3071)"><path
             d="m 0,0 v 0 c -11.366,-11.367 -26.782,-17.752 -42.857,-17.752 h -93.558 -89.899 c -18.417,0 -36.081,7.316 -49.103,20.339 -3.45,3.449 -9.042,3.449 -12.492,0 L -290.496,0 c -6.956,-6.957 -6.956,-18.236 0,-25.192 l 17.647,-17.648 c 3.341,-3.34 7.872,-5.217 12.597,-5.217 h 123.837 123.838 c 4.723,0 9.255,1.877 12.596,5.217 l 17.647,17.648 c 6.956,6.956 6.956,18.235 0,25.192 C 12.787,4.878 4.879,4.878 0,0"
             style="fill:#d57e4b;fill-opacity:1;fill-rule:nonzero;stroke:none"
             id="path3515" /></g><g
           id="g3517"
           transform="translate(410.0811,428.3071)"><path
             d="m 0,0 c -4.878,4.878 -12.787,4.878 -17.666,0 -0.502,-0.502 -1.021,-0.983 -1.54,-1.465 5.614,-6.995 5.183,-17.24 -1.305,-23.727 L -38.158,-42.84 c -3.341,-3.34 -7.872,-5.217 -12.597,-5.217 h 20.511 c 4.724,0 9.256,1.877 12.597,5.217 L 0,-25.192 C 6.956,-18.236 6.956,-6.957 0,0"
             style="fill:#c56e37;fill-opacity:1;fill-rule:nonzero;stroke:none"
             id="path3519" /></g><g
           id="g3521"
           transform="translate(318.6299,272.4189)"><path
             d="M 0,0 C -13.368,-31.902 1.657,-68.601 33.559,-81.969 46.927,-50.067 31.902,-13.368 0,0"
             style="fill:#e64343;fill-opacity:1;fill-rule:nonzero;stroke:none"
             id="path3523" /></g><g
           id="g3525"
           transform="translate(318.6299,272.4189)"><path
             d="M 0,0 C 13.368,-31.902 -1.656,-68.601 -33.559,-81.969 -46.927,-50.067 -31.901,-13.368 0,0"
             style="fill:#fa989e;fill-opacity:1;fill-rule:nonzero;stroke:none"
             id="path3527" /></g><g
           id="g3529"
           transform="translate(375.1992,7.5)"><path
             d="M 0,0 V 204.067"
             style="fill:none;stroke:#000000;stroke-width:15;stroke-linecap:round;stroke-linejoin:round;stroke-miterlimit:10;stroke-dasharray:none;stroke-opacity:1"
             id="path3531" /></g><g
           id="g3533"
           transform="translate(317.6357,218.2856)"><path
             d="m 0,0 v -71.275 l -34.975,-55.523 v -83.988"
             style="fill:none;stroke:#000000;stroke-width:15;stroke-linecap:round;stroke-linejoin:round;stroke-miterlimit:10;stroke-dasharray:none;stroke-opacity:1"
             id="path3535" /></g><g
           id="g3537"
           transform="translate(136.8008,7.5)"><path
             d="M 0,0 V 204.067"
             style="fill:none;stroke:#000000;stroke-width:15;stroke-linecap:round;stroke-linejoin:round;stroke-miterlimit:10;stroke-dasharray:none;stroke-opacity:1"
             id="path3539" /></g><g
           id="g3541"
           transform="translate(194.3647,226.9175)"><path
             d="m 0,0 v -79.907 l 34.974,-55.523 v -83.987"
             style="fill:none;stroke:#000000;stroke-width:15;stroke-linecap:round;stroke-linejoin:round;stroke-miterlimit:10;stroke-dasharray:none;stroke-opacity:1"
             id="path3543" /></g><g
           id="g3545"
           transform="translate(82.5298,126.6919)"><path
             d="m 0,0 v 23.838 c 0,27.46 18.46,51.49 44.99,58.56 l 66.84,17.82"
             style="fill:none;stroke:#000000;stroke-width:15;stroke-linecap:round;stroke-linejoin:round;stroke-miterlimit:10;stroke-dasharray:none;stroke-opacity:1"
             id="path3547" /></g><g
           id="g3549"
           transform="translate(429.4697,91.6431)"><path
             d="M 0,0 V -84.143 H -346.94 V 0"
             style="fill:none;stroke:#000000;stroke-width:15;stroke-linecap:round;stroke-linejoin:round;stroke-miterlimit:10;stroke-dasharray:none;stroke-opacity:1"
             id="path3551" /></g><g
           id="g3553"
           transform="translate(357.04,216.4102)"><path
             d="m 0,0 27.44,-7.32 c 26.53,-7.07 44.99,-31.1 44.99,-58.56 v -23.865"
             style="fill:none;stroke:#000000;stroke-width:15;stroke-linecap:round;stroke-linejoin:round;stroke-miterlimit:10;stroke-dasharray:none;stroke-opacity:1"
             id="path3555" /></g><g
           id="g3557"
           transform="translate(193.3701,277.5)"><path
             d="m 0,0 v -39.68 c 0,-21.53 11.42,-41.44 30,-52.31 l 32.63,-19.1 32.63,19.1 c 9.762,5.71 17.546,13.913 22.734,23.537"
             style="fill:none;stroke:#000000;stroke-width:15;stroke-linecap:round;stroke-linejoin:round;stroke-miterlimit:10;stroke-dasharray:none;stroke-opacity:1"
             id="path3559" /></g><g
           id="g3561"
           transform="translate(392.415,428.3071)"><path
             d="m 0,0 v 0 c -11.366,-11.367 -26.782,-17.752 -42.857,-17.752 h -93.558 -89.899 c -18.417,0 -36.081,7.316 -49.103,20.339 -3.45,3.449 -9.042,3.449 -12.492,0 L -290.496,0 c -6.956,-6.957 -6.956,-18.236 0,-25.192 l 17.647,-17.648 c 3.341,-3.34 7.872,-5.217 12.597,-5.217 h 123.837 123.838 c 4.723,0 9.255,1.877 12.596,5.217 l 17.647,17.648 c 6.956,6.956 6.956,18.235 0,25.192 C 12.787,4.878 4.879,4.878 0,0 Z"
             style="fill:none;stroke:#000000;stroke-width:15;stroke-linecap:round;stroke-linejoin:round;stroke-miterlimit:10;stroke-dasharray:none;stroke-opacity:1"
             id="path3563" /></g><g
           id="g3565"
           transform="translate(174.3657,380.25)"><path
             d="m 0,0 v -50.387 c 0,-45.086 36.549,-81.634 81.634,-81.634 45.085,0 81.635,36.548 81.635,81.634 V 0"
             style="fill:none;stroke:#000000;stroke-width:15;stroke-linecap:round;stroke-linejoin:round;stroke-miterlimit:10;stroke-dasharray:none;stroke-opacity:1"
             id="path3567" /></g><g
           id="g3569"
           transform="translate(353.9609,330.9756)"><path
             d="M 0,0 H -16.326 V 49.274 H 0 c 5.636,0 10.204,-4.568 10.204,-10.204 V 10.205 C 10.204,4.569 5.636,0 0,0 Z"
             style="fill:none;stroke:#000000;stroke-width:15;stroke-linecap:round;stroke-linejoin:round;stroke-miterlimit:10;stroke-dasharray:none;stroke-opacity:1"
             id="path3571" /></g><g
           id="g3573"
           transform="translate(158.0391,330.9756)"><path
             d="M 0,0 H 16.327 V 49.274 H 0 c -5.636,0 -10.205,-4.568 -10.205,-10.204 V 10.205 C -10.205,4.569 -5.636,0 0,0 Z"
             style="fill:none;stroke:#000000;stroke-width:15;stroke-linecap:round;stroke-linejoin:round;stroke-miterlimit:10;stroke-dasharray:none;stroke-opacity:1"
             id="path3575" /></g><g
           id="g3577"
           transform="translate(348.9346,410.5547)"><path
             d="m 0,0 -22.421,77.228 c -2.875,9.904 -11.947,16.717 -22.261,16.717 h -17.067 c -5.767,0 -11.326,-2.149 -15.593,-6.028 -8.842,-8.038 -22.344,-8.038 -31.185,0 -4.267,3.879 -9.827,6.028 -15.593,6.028 h -17.067 c -10.313,0 -19.386,-6.813 -22.262,-16.717 L -185.87,0 Z"
             style="fill:none;stroke:#000000;stroke-width:15;stroke-linecap:round;stroke-linejoin:round;stroke-miterlimit:10;stroke-dasharray:none;stroke-opacity:1"
             id="path3579" /></g><g
           id="g3581"
           transform="translate(340.7236,438.8394)"><path
             d="M 0,0 H -169.447"
             style="fill:none;stroke:#000000;stroke-width:15;stroke-linecap:round;stroke-linejoin:round;stroke-miterlimit:10;stroke-dasharray:none;stroke-opacity:1"
             id="path3583" /></g><g
           id="g3585"
           transform="translate(318.6299,272.4199)"><path
             d="M 0,0 C 31.9,-13.37 46.93,-50.07 33.561,-81.97 17.78,-75.35 6.13,-63.03 0,-48.4"
             style="fill:none;stroke:#000000;stroke-width:15;stroke-linecap:round;stroke-linejoin:round;stroke-miterlimit:10;stroke-dasharray:none;stroke-opacity:1"
             id="path3587" /></g><g
           id="g3589"
           transform="translate(318.6299,272.4189)"><path
             d="M 0,0 C 13.368,-31.902 -1.656,-68.601 -33.559,-81.969 -46.927,-50.067 -31.901,-13.368 0,0 Z"
             style="fill:none;stroke:#000000;stroke-width:15;stroke-linecap:round;stroke-linejoin:round;stroke-miterlimit:10;stroke-dasharray:none;stroke-opacity:1"
             id="path3591" /></g><g
           id="g3593"
           transform="translate(318.6299,272.4189)"><path
             d="M 0,0 C 13.368,-31.902 -1.656,-68.601 -33.559,-81.969 -46.927,-50.067 -31.901,-13.368 0,0 Z"
             style="fill:none;stroke:#000000;stroke-width:15;stroke-linecap:round;stroke-linejoin:round;stroke-miterlimit:10;stroke-dasharray:none;stroke-opacity:1"
             id="path3595" /></g><g
           id="g3597"
           transform="translate(260.7979,194.9575)"><path
             d="m 0,0 -0.849,-0.499 c -2.503,-1.467 -5.597,-1.487 -8.11,-0.039 -9.617,5.543 -32.565,20.5 -32.565,37.015"
             style="fill:none;stroke:#000000;stroke-width:15;stroke-linecap:round;stroke-linejoin:round;stroke-miterlimit:10;stroke-dasharray:none;stroke-opacity:1"
             id="path3599" /></g><g
           id="g3601"
           transform="translate(256,166.4077)"><path
             d="M 0,0 V -62.942"
             style="fill:none;stroke:#000000;stroke-width:15;stroke-linecap:round;stroke-linejoin:round;stroke-miterlimit:10;stroke-dasharray:none;stroke-opacity:1"
             id="path3603" /></g><g
           id="g3605"
           transform="translate(313.5791,79.2217)"><path
             d="M 0,0 H 32.325"
             style="fill:none;stroke:#000000;stroke-width:15;stroke-linecap:round;stroke-linejoin:round;stroke-miterlimit:10;stroke-dasharray:none;stroke-opacity:1"
             id="path3607" /></g><g
           id="g3609"
           transform="translate(198.4209,79.2217)"><path
             d="M 0,0 H -32.325"
             style="fill:none;stroke:#000000;stroke-width:15;stroke-linecap:round;stroke-linejoin:round;stroke-miterlimit:10;stroke-dasharray:none;stroke-opacity:1"
             id="path3611" /></g></g></g></g></svg>
