<svg id="Capa_1" enable-background="new 0 0 512 512" height="512" viewBox="0 0 512 512" width="512" xmlns="http://www.w3.org/2000/svg"><g><g><path d="m495.62 288.76v-48.296c0-42.039-31.523-77.051-73.324-81.449l-86.117-9.074c-9.255-12.129-22.399-20.393-37.117-23.505v-31.965c0-10.287-8.37-18.648-18.657-18.648-6.519 0-12.645 3.473-15.987 9.05l-14.603 24.34c-2.654-.369-5.332-.631-8.083-.631-2.752 0-5.438.262-8.083.639l-14.603-24.332c-3.35-5.594-9.476-9.066-15.995-9.066-10.287 0-18.648 8.362-18.648 18.648v31.965c-8.935 1.892-17.297 5.651-24.57 11.048v-10.254c0-10.287-8.37-18.648-18.657-18.648-6.519 0-12.645 3.473-15.987 9.05l-14.603 24.34c-2.654-.369-5.332-.631-8.083-.631-2.752 0-5.438.262-8.083.639l-14.611-24.34c-3.341-5.586-9.468-9.058-15.987-9.058-10.287 0-18.648 8.362-18.648 18.648v31.965c-16.019 3.391-30.286 12.801-39.574 26.74l-5.6 8.403 45.176 18.067v15.323c-5.217 5.905-8.19 12.735-8.19 20.082 0 21.703 25.716 38.943 59.557 40.769l5.52 16.56h-48.698c0-9.033-7.346-16.38-16.38-16.38h-16.38c-9.033 0-16.38 7.346-16.38 16.38v114.659c0 9.033 7.346 16.38 16.38 16.38h16.38c9.033 0 16.38-7.346 16.38-16.38h180.178c0 9.033 7.346 16.38 16.38 16.38h16.38c9.033 0 16.38-7.346 16.38-16.38h180.178c0 9.033 7.346 16.38 16.38 16.38h16.38c9.033 0 16.38-7.346 16.38-16.38v-114.659c-.001-9.033-7.356-16.379-16.381-16.379zm-25.962-82.473c-1.532.278-3.063.573-4.619.573-8.411 0-16.552 2.465-23.546 7.133l-10.237 6.822c-2.375 1.581-5.151 2.424-8.018 2.424-6.658 0-12.44-4.513-14.054-10.958l-.762-3.038c-2.654-10.59-10.418-18.976-20.778-22.432-5.02-1.671-8.788-5.741-10.074-10.868l-1.327-5.307 44.34 4.668c21.017 2.212 38.772 14.104 49.075 30.983zm-170.792-44.209c-.475-7.092-2.219-13.825-5.053-19.983 9.23 1.572 17.764 5.766 24.504 12.195zm-21.171 94.978c6.994 4.668 15.135 7.133 23.546 7.133 11.343 0 22.006-4.414 30.024-12.44l1.654-1.654c1.458-1.45 3.473-2.285 5.528-2.285h1.933c4.308 0 7.813 3.505 7.813 7.813 0 2.621-1.294 5.053-3.481 6.503-12.596 8.403-22.833 19.992-29.598 33.529l-4.742 9.484h-27.698c0-9.033-7.346-16.38-16.38-16.38h-2.293l-11.122-33.374c6.11-.631 11.892-1.769 17.273-3.358zm4.988 97.223h180.178v16.38h-180.178zm0-16.38v-16.38h180.178v16.38zm-49.14-32.76h-15.045c4.316-4.464 6.855-10.401 6.855-16.757 0-13.341-10.852-24.193-24.193-24.193h-1.933c-6.462 0-12.539 2.514-17.109 7.084l-1.654 1.654c-8.214 8.206-21.539 9.771-31.507 4.013 11.834-7.371 19.066-17.625 19.066-29.131 0-7.346-2.973-14.177-8.19-20.082v-15.323l18.345-7.338c-1.237 3.194-1.966 6.519-1.966 9.983 0 21.703 25.716 38.943 59.557 40.769l11.081 33.251c-7.566 1.443-13.307 8.093-13.307 16.07zm-73.905-110.301c-.475-7.092-2.219-13.825-5.053-19.983 9.23 1.572 17.764 5.766 24.504 12.195zm82.095 44.782c-28.959 0-49.139-12.948-49.139-24.57s20.18-24.57 49.139-24.57 49.139 12.948 49.139 24.57c.001 11.622-20.179 24.57-49.139 24.57zm36.732-146.321c1.048-1.744 4.218-.876 4.218 1.171v30.491h-.909c-4.57-4.472-9.902-8.149-15.757-10.909zm4.218 72.612v16.986c-11.146-5.512-25.315-8.796-40.95-8.796s-29.803 3.284-40.95 8.796v-16.986c0-22.58 18.37-40.95 40.95-40.95s40.95 18.37 40.95 40.95zm-77.69-72.603 12.449 20.753c-5.856 2.752-11.179 6.429-15.757 10.901h-.909v-30.491c.008-2.048 3.169-2.932 4.217-1.163zm-15.348 48.795c-2.826 6.159-4.578 12.891-5.053 19.983l-19.451-7.78c6.741-6.445 15.274-10.639 24.504-12.203zm-50.408-16.044c1.048-1.744 4.218-.876 4.218 1.171v28.009l-1.368 2.056c-4.472-4.275-9.631-7.821-15.291-10.483zm4.217 72.612v16.986c-11.146-5.512-25.315-8.796-40.95-8.796s-29.803 3.284-40.95 8.796v-16.986c0-22.58 18.37-40.95 40.95-40.95s40.95 18.37 40.95 40.95zm-77.689-72.604 12.449 20.753c-5.856 2.752-11.179 6.429-15.757 10.901h-.901v-30.491c-.001-2.047 3.161-2.932 4.209-1.163zm-15.348 48.796c-2.826 6.159-4.578 12.891-5.053 19.983l-19.451-7.78c6.74-6.446 15.274-10.639 24.504-12.203zm2.948 72.947c0-11.621 20.18-24.57 49.139-24.57s49.139 12.948 49.139 24.57c0 11.621-20.18 24.57-49.139 24.57s-49.139-12.948-49.139-24.57zm60.294 40.335c6.11-.631 11.892-1.769 17.273-3.358l7.535 5.012c6.978 4.676 15.127 7.15 23.546 7.15 11.343 0 22.006-4.414 30.024-12.44l1.654-1.654c1.458-1.45 3.473-2.285 5.528-2.285h1.933c4.308 0 7.813 3.505 7.813 7.813 0 2.621-1.294 5.045-3.481 6.503-4.488 2.989-8.599 6.495-12.449 10.254h-73.726zm119.884 33.374v16.38h-180.178v-16.38zm0 32.76v16.38h-180.178v-16.38zm-212.937 65.519v-114.659h16.38l.016 114.659zm32.759-16.38v-16.38h180.178v16.38zm196.558 16.38v-114.659h16.38l.016 114.659zm32.76-16.38v-16.38h180.178v16.38zm180.178-98.279h-134.167l1.081-2.162c5.495-10.991 13.808-20.401 24.037-27.223 6.74-4.488 10.77-12.015 10.77-20.131 0-13.341-10.852-24.193-24.193-24.193h-1.933c-6.462 0-12.539 2.514-17.109 7.084l-1.654 1.654c-8.206 8.206-21.531 9.762-31.507 4.021 11.834-7.371 19.074-17.625 19.074-29.14 0-7.346-2.973-14.177-8.19-20.082v-15.323l33.914-13.571 25.937 2.727 2.768 11.106c2.654 10.59 10.418 18.976 20.778 22.432 5.02 1.671 8.788 5.741 10.065 10.86l.762 3.038c3.44 13.767 15.749 23.382 29.942 23.382 6.118 0 12.039-1.794 17.117-5.184l10.229-6.822c4.292-2.858 9.287-4.373 14.455-4.373 3.874 0 7.715-.59 11.433-1.63 1.785 5.979 2.768 12.301 2.768 18.845v48.304c-9.031.002-16.377 7.348-16.377 16.381zm16.379 114.659v-114.659h16.38l.016 114.659z"/><circle cx="217.163" cy="157.721" r="8.19"/><circle cx="225.353" cy="215.05" r="8.19"/><ellipse cx="258.113" cy="215.05" rx="8.19" ry="8.19" transform="matrix(.16 -.987 .987 .16 4.494 435.383)"/><circle cx="266.303" cy="157.721" r="8.19"/><circle cx="77.935" cy="190.481" r="8.19"/><circle cx="86.125" cy="247.81" r="8.19"/><circle cx="118.885" cy="247.81" r="8.19"/><circle cx="127.075" cy="190.481" r="8.19"/></g></g></svg>