<svg height="512" viewBox="0 0 512 512" width="512" xmlns="http://www.w3.org/2000/svg"><g id="flat"><path d="m284.438 153.344-24-16a8 8 0 1 0 -8.876 13.312l2.016 1.344h-50.265l-5.656-5.657a8 8 0 0 0 -11.314 11.314l2.343 2.343-2.343 2.343a8 8 0 0 0 11.314 11.314l5.657-5.657h50.264l-2.016 1.344a8 8 0 1 0 8.876 13.312l24-16a8 8 0 0 0 0-13.312z" fill="#bbbab6"/><path d="m224 200a8 8 0 0 1 -8-8v-72a8 8 0 0 1 16 0v72a8 8 0 0 1 -8 8z" fill="#dcdbd6"/><path d="m376 136-8 312h40l-8-312z" fill="#cdccc8"/><path d="m387.51 144.12 1.77 3.68-14.35 29.82 1.03-39.98 3.24.44.68-2.08 9.4 6.83z" fill="#bbbab6"/><path d="m389.28 147.8 1.77-3.68-1.77-1.29 9.41-6.83.67 2.08.69-.09.87 34.01z" fill="#bbbab6"/><path d="m312 240 32 40h-32z" fill="#6699ce"/><path d="m400.92 172-11.64-24.2-14.35 29.82 1.03-39.98 3.24.44.68-2.08 9.4 6.83 9.41-6.83.67 2.08.69-.09z" fill="#bbbab6"/><path d="m312 448h-176v-208l88-48 88 48z" fill="#812622"/><path d="m168 352h112v96h-112z" fill="#932c27"/><path d="m136 448h-104v-168l104-40z" fill="#932c27"/><path d="m224 192h-88l-88 48-24 40h88l24-40z" fill="#5b89b9"/><path d="m416 448h-24l-8-32h-48l-8 32h-24v-32l-7.149-28.6a28.5 28.5 0 0 1 -.851-6.911 28.492 28.492 0 0 1 28.492-28.489h91.508v-8h16l8 8 17.038 11.359a15.632 15.632 0 0 1 6.962 13.008 15.633 15.633 0 0 1 -15.633 15.633h-16.367l-16 24z" fill="#a3612d"/><path d="m320 408h-8a24.028 24.028 0 0 1 -24-24v-3.508a8 8 0 1 1 16 0v3.508a8.009 8.009 0 0 0 8 8h8a8 8 0 0 1 0 16z" fill="#915628"/><path d="m208 248h32v32h-32z" fill="#932c27"/><path d="m480 408a8 8 0 0 0 -8 8h-16a8 8 0 0 0 -16 0v32a8 8 0 0 0 16 0v-16h16v16a8 8 0 0 0 16 0v-32a8 8 0 0 0 -8-8z" fill="#cdccc8"/><path d="m80 416h48a0 0 0 0 1 0 0v32a0 0 0 0 1 0 0h-48a16 16 0 0 1 -16-16 16 16 0 0 1 16-16z" fill="#915628"/><circle cx="128" cy="432" fill="#e6af89" r="16"/><path d="m88 384h32a0 0 0 0 1 0 0v32a0 0 0 0 1 0 0h-32a16 16 0 0 1 -16-16 16 16 0 0 1 16-16z" fill="#a3612d"/><circle cx="120" cy="400" fill="#e6af89" r="16"/><path d="m48 240h88l-24 40h-88z" fill="#6699ce"/><path d="m222.772 128a23.9 23.9 0 0 0 22.676-16.344l2.552-7.656h4a12 12 0 0 0 12-12 12 12 0 0 0 -12-12 28.971 28.971 0 0 0 -20.485 8.485l-7.515 7.515h-32l9.394 18.787a23.9 23.9 0 0 0 21.378 13.213z" fill="#dcdbd6"/><path d="m383.47 120-3.592 11.056 9.404 6.833 9.405-6.833-3.593-11.056z" fill="none"/><path d="m488 121.16-14.833-45.651-28.636 15.422 11.237 34.584z" fill="#932c27"/><path d="m395.094 120 3.593 11.056 1.77-1.286 2.951 2.82 52.36-7.075-11.237-34.584-46.519 25.053-.73 4.016z" fill="#dcdbd6"/><path d="m383.47 120h11.624l-.676-2.081 3.594-1.935 9.452-51.984h-36.364l9.452 51.984 3.594 1.935z" fill="#dcdbd6"/><path d="m413.282 32h-48l5.818 32h36.364z" fill="#932c27"/><path d="m305.397 75.509-14.833 45.651 32.232 4.355 11.237-34.584z" fill="#932c27"/><path d="m379.878 131.056 3.592-11.056h-2.188l-.73-4.016-46.519-25.053-11.237 34.584 52.36 7.075 2.952-2.82z" fill="#dcdbd6"/><path d="m389.282 137.889-9.404-6.833-.676 2.08-4.046-.546-38.201 36.5 29.418 21.374 22.909-47.611-1.77-3.679z" fill="#dcdbd6"/><path d="m313.438 191.559 38.833 28.213 14.102-29.308-29.418-21.374z" fill="#932c27"/><path d="m412.191 190.464 14.102 29.308 38.833-28.213-23.516-22.469z" fill="#932c27"/><path d="m403.408 132.59-4.045.546-.676-2.08-9.405 6.833 1.77 1.285-1.77 3.679 22.909 47.611 29.419-21.374z" fill="#dcdbd6"/><circle cx="389.282" cy="128" fill="#bbbab6" r="16"/><path d="m272 352h8v88h-8z" fill="#cdccc8"/><path d="m280 445.171v-93.171a8 8 0 0 0 -8-8h-96a8 8 0 0 0 -8 8v96a8 8 0 0 0 8 8h96a8 8 0 0 0 8-8v-2.828zm-96-73.857 28.686 28.686-28.686 28.686zm11.314-11.314h57.372l-28.686 28.686zm28.686 51.314 28.686 28.686h-57.372zm11.314-11.314 28.686-28.686v57.372z" fill="#dcdbd6"/><path d="m160 328h128v24h-128z" fill="#eae9e4"/><path d="m24 448h464v32h-464z" fill="#768753"/><path d="m168 352h112v8h-112z" fill="#bbbab6"/></g></svg>