<svg height="511pt" viewBox="0 -31 511.99978 511" width="511pt" xmlns="http://www.w3.org/2000/svg"><path d="m167.675781 337.328125h-57.933593c-5.527344 0-10.007813 4.480469-10.007813 10.007813 0 5.527343 4.480469 10.003906 10.007813 10.003906h2.027343l11.539063 56.914062c.839844 4.148438 4.484375 7.128906 8.714844 7.128906h15.121093l15.644531-64.042968zm0 0"/><path d="m507.40625 122.304688-40.628906-70.148438c2.824218-8.542969 5.566406-21.980469-.09375-32.523438-6.578125-12.257812-22.699219-17.210937-30.921875-18.992187-2.953125-.640625-5.929688.960937-7.027344 3.773437-3.058594 7.835938-7.839844 24.011719-1.257813 36.269532.019532.035156.042969.070312.0625.105468h-318.152343c-23.761719 0-44.546875 12.714844-55.941407 31.707032-26.566406 1.839844-47.621093 24.023437-47.621093 51.046875v104.75c-3.15625 5.109375-5.824219 11.46875-5.824219 18.359375 0 10.824218 6.578125 20.332031 11.285156 25.75 2.464844 2.835937 6.859375 2.835937 9.324219 0 4.707031-5.417969 11.289063-14.925782 11.289063-25.75 0-6.890625-2.671876-13.25-5.824219-18.359375v-104.75c0-12.847657 7.875-23.890625 19.050781-28.558594-.605469 3.582031-.941406 7.253906-.941406 11.007813v241.570312c0 6.210938 5.035156 11.25 11.246094 11.25h21.707031c6.210937 0 11.246093-5.039062 11.246093-11.25v-77.074219c4.328126 1.980469 8.976563 3.386719 13.851563 4.097657v18.050781c0 4.109375 3.164063 7.691406 7.273437 7.8125 4.25.128906 7.734376-3.277344 7.734376-7.5v-18.363281c7.082031-1.035157 13.691406-3.515626 19.527343-7.132813l5.277344 5.203125c1.710937-4.902344 4.828125-9.179688 8.894531-12.308594l-2.664062-2.625c4.117187-4.667968 7.402344-10.082031 9.613281-16.019531h58.617187l-.6875-9.71875c-1.167968-16.46875 8.910157-30.664063 22.976563-35.980469-3.324219-1.832031-6.449219-4.070312-9.289063-6.703125-8.710937-8.082031-13.972656-19.0625-14.8125-30.921875-2.953124-41.597656 45.808594-65.230468 76.695313-38.984375 8.699219 7.390625 14.449219 17.582031 16.078125 28.886719 1.972656 13.660156-1.992188 27.089844-10.925781 37.390625-1.675781 1.929687-3.492188 3.695313-5.414063 5.300781 17.613282.492188 34.039063 13.65625 33.890625 35.964844-.019531 14.355469-.113281 85.113281-.128906 97.515625h8.699219c7.429687 0 14.132812 3.183594 18.820312 8.253906v-93.152343l56.273438-63.769532c15.09375-17.109375 43.824218-22.109375 63.101562-9.90625 11.019532 6.972656 26.058594 4.398438 33.953125-6.761718 7.699219-10.894532 8.351563-25.269532 1.667969-36.8125zm0 0"/><path d="m294.871094 152.6875c-1.320313-18.578125-17.449219-32.53125-35.984375-31.214844-18.554688 1.316406-32.53125 17.429688-31.214844 35.984375 1.261719 17.746094 16.046875 31.300781 33.5625 31.300781 19.648437 0 35.015625-16.636718 33.636719-36.070312zm0 0"/><path d="m333.589844 337.460938h-21.726563l.003907-.902344.058593-46.261719.085938-63.414063c.113281-14.878906-10.785157-23.769531-23.5-22.871093-.101563.007812-38.949219 2.746093-39.941407 2.871093-11.855468 1.523438-20.636718 12.054688-19.773437 24.179688l1.046875 14.78125 24.402344-16.441406-32.070313 33.363281-56.003906 3.386719c-8.414063.507812-14.820313 7.738281-14.3125 16.152344.488281 8.101562 7.210937 14.339843 15.21875 14.339843.308594 0 .621094-.007812.9375-.027343l61.953125-3.746094c3.824219-.230469 7.421875-1.894532 10.078125-4.65625l36.203125-37.660156-28.085938 45.460937c-2.921874 4.730469-7.835937 7.472656-12.988281 7.820313l-1.210937.074218.347656 4.890625-38.011719 9.8125c-6.535156 1.6875-11.613281 6.832031-13.214843 13.386719l-23.082032 94.496094c-2.398437 9.828125 3.621094 19.738281 13.445313 22.136718 9.800781 2.394532 19.730469-3.597656 22.136719-13.445312l20.480468-83.847656 3.765625-.972656c.148438 6.972656 5.871094 12.363281 12.617188 12.363281h7.035156c9.953125 11.082031 17.894531 19.921875 27.675781 30.8125l-32.289062 35.945312c-4.140625 4.609375-3.761719 11.703125.847656 15.84375 4.628906 4.160157 11.722656 3.742188 15.847656-.847656l30.675782-34.152344 30.679687 34.152344c4.144531 4.609375 11.238281 4.988281 15.84375.847656 4.609375-4.140625 4.992187-11.234375.851563-15.84375l-32.289063-35.945312c9.785156-10.898438 17.730469-19.742188 27.675781-30.8125h8.582032c6.976562 0 12.632812-5.65625 12.632812-12.632813 0-6.976562-5.652344-12.636718-12.628906-12.636718zm-38.746094 25.265624-11.6875 13.007813h-1.820312l-11.6875-13.007813zm0 0"/></svg>