<svg width="244" height="40"
    viewBox="0 0 359.2758620689655 56.64897898245577" class="css-1j8o68f">
    <defs id="SvgjsDefs22172"></defs>
    <g id="SvgjsG22173" featurekey="ECw45b-0"
        transform="matrix(5.407621847684239,0,0,5.407621847684239,306.5225999389914,3.709155817181479)"
        fill="#ffffff">
        <g xmlns="http://www.w3.org/2000/svg">
            <path style="color:;paint-order:fill markers stroke;"
                d="m 2.6691323,0.79350226 a 0.26460897,0.26460897 0 0 0 -0.251664,0.1757 c 0,0 -0.438675,1.14515104 -0.10387,2.19418104 -0.03724,-0.0027 -0.0748,-0.0039 -0.112138,-0.0036 -0.234242,0.0021 -0.468233,0.06325 -0.678511,0.184485 a 0.26460897,0.26460897 0 0 0 -0.0021,0 c -0.448029,0.258969 -0.71497503,0.748615 -0.69143103,1.265556 a 0.26460897,0.26460897 0 0 0 0.12299,0.21084 c 0.36520103,0.233599 0.81378603,0.280262 1.21336303,0.137459 -9.53e-4,0.03163 -0.0026,0.06323 -0.0026,0.09509 v 0.751892 c 0.13926,-0.12134 0.289145,-0.23188 0.447001,-0.329179 0.731757,-0.451038 1.666248,-0.696082 2.682007,-0.696082 1.015762,0 1.950252,0.245044 2.682008,0.696082 0.157855,0.0973 0.307742,0.207839 0.447,0.329179 v -0.751892 c 0,-0.03203 -0.0016,-0.06381 -0.0026,-0.0956 0.39955,0.142494 0.848987,0.09568 1.213879,-0.137459 a 0.26460847,0.26460847 0 0 0 0.121439,-0.21084 c 0.02363,-0.516977 -0.243383,-1.004991 -0.691431,-1.264005 -0.207073,-0.11955 -0.441478,-0.183786 -0.680579,-0.186036 a 0.26460847,0.26460847 0 0 0 -5.3e-4,0 c -0.03698,-2.91e-4 -0.07389,0.0015 -0.110587,0.0041 0.334806,-1.049031 -0.103871,-2.19418104 -0.103871,-2.19418104 a 0.26460897,0.26460897 0 0 0 -0.251663,-0.1757 0.26460897,0.26460897 0 0 0 -0.248047,0.179834 c -0.177459,0.52179704 -0.297754,0.83723804 -0.42168,1.02319304 -0.106386,0.159643 -0.208677,0.244157 -0.416512,0.332797 -0.45397,-0.256162 -0.978075,-0.403077 -1.536856,-0.403077 -0.558782,0 -1.082886,0.146915 -1.536858,0.403077 -0.207836,-0.08863 -0.310126,-0.173142 -0.416515,-0.332785 -0.123923,-0.185955 -0.244219,-0.501396 -0.42168,-1.02319304 a 0.26460897,0.26460897 0 0 0 -0.248046,-0.179834 z m 1.400431,2.68562404 a 0.26458349,0.26458349 0 0 1 0.26355,0.265617 v 0.503846 a 0.26458349,0.26458349 0 0 1 -0.26355,0.264066 0.26458349,0.26458349 0 0 1 -0.265617,-0.264066 v -0.503846 a 0.26458349,0.26458349 0 0 1 0.265617,-0.265617 z m 2.445328,0 a 0.26458349,0.26458349 0 0 1 0.265618,0.265617 v 0.503846 a 0.26458349,0.26458349 0 0 1 -0.265618,0.264066 0.26458349,0.26458349 0 0 1 -0.263549,-0.264066 v -0.503846 a 0.26458349,0.26458349 0 0 1 0.263549,-0.265617 z m -1.222663,1.829863 c -0.928966,0 -1.773431,0.228553 -2.404505,0.617533 -0.631074,0.38898 -1.064017,0.961215 -1.064017,1.62264 0,0.661425 0.432943,1.23211 1.064017,1.62109 0.631074,0.388981 1.475539,0.6196 2.404505,0.6196 0.928968,0 1.77343,-0.230619 2.404504,-0.6196 0.631073,-0.38898 1.064019,-0.959665 1.064019,-1.62109 0,-0.661425 -0.432946,-1.23366 -1.064019,-1.62264 -0.631074,-0.38898 -1.475536,-0.617533 -2.404504,-0.617533 z m -1.196827,1.946651 a 0.29316767,0.29315224 0 0 1 0.294556,0.294039 0.29316767,0.29315224 0 0 1 -0.294556,0.292489 0.29316767,0.29315224 0 0 1 -0.291971,-0.292489 0.29316767,0.29315224 0 0 1 0.291971,-0.294039 z m 2.391069,0 a 0.29316767,0.29315224 0 0 1 0.294555,0.294039 0.29316767,0.29315224 0 0 1 -0.294555,0.292489 0.29316767,0.29315224 0 0 1 -0.291971,-0.292489 0.29316767,0.29315224 0 0 1 0.291971,-0.294039 z"
                fill="#ffffff" fill-rule="evenodd" stroke-width="1" stroke-linecap="round"
                stroke-linejoin="round"></path>
        </g>
    </g>
    <g id="SvgjsG22174" featurekey="6sJQsk-0"
        transform="matrix(3.066551105576327,0,0,3.066551105576327,-4.231842338879769,-6.375380447205121)"
        fill="#ffffff">
        <path
            d="M11.3 7.48 l-6.56 0 l0 4.16 l5.2 0 l0 2.14 l-5.2 0 l0 6.22 l-2.14 0 l0 -6.22 l-1.22 -1.06 l1.22 -1.08 l0 -6.3 l8.7 0 l0 2.14 z M20.432 12.719999999999999 l-1.22 1.08 l0 6.2 l-2.14 0 l0 -6.2 l-1.22 -1.08 l1.22 -1.06 l0 -6.32 l2.14 0 l0 6.32 z M37.584 12.719999999999999 l-1.22 1.06 l0 6.22 l-2.14 0 l-6.12 -10.86 l0 10.86 l-2.14 0 l0 -6.22 l-1.22 -1.06 l1.22 -1.08 l0 -6.3 l2.26 0 l6 10.56 l0 -10.56 l2.14 0 l0 6.3 z M53.456 17.58 l-2.74 2.42 l-5.2 0 l-2.76 -2.42 l0 -3.78 l-1.22 -1.08 l1.22 -1.06 l0 -3.88 l2.76 -2.44 l5.2 0 l2.74 2.44 l0 3.06 l-2.14 0 l0 -2.1 l-1.52 -1.26 l-3.38 0 l-1.52 1.32 l0 7.76 l1.52 1.32 l3.38 0 l1.52 -1.26 l0 -1.8 l2.14 0 l0 2.76 z M70.188 20 l-2.24 0 l-1.38 -3.66 l-6 0 l-1.38 3.66 l-2.24 0 l2.32 -6.2 l-1.02 -1.08 l1.78 -0.92 l2.42 -6.46 l2.24 0 z M65.768 14.2 l-2.2 -6 l-2.2 6 l4.4 0 z M77.8 13.559999999999999 l0 -2.12 l3.88 0 l2.74 2.28 l0 3.84 l-2.74 2.44 l-4.66 0 l-2.76 -2.44 l0 -2.44 l2.14 0 l0 1.52 l1.42 1.22 l3.04 0 l1.42 -1.22 l0 -1.94 l-1.42 -1.14 l-3.06 0 l4.48 -3.14 l0 -1.72 l-1.42 -1.22 l-3.04 0 l-1.42 1.22 l0 1.52 l-2.14 0 l0 -2.44 l2.76 -2.44 l4.66 0 l2.74 2.44 l0 3.56 l-1.48 1.1 z M99.772 17.58 l-2.74 2.42 l-4.2 0 l-2.76 -2.42 l0 -3.78 l-1.22 -1.08 l1.22 -1.06 l0 -3.88 l2.76 -2.44 l4.2 0 l2.74 2.44 l0 2.66 l-2.14 0 l0 -1.72 l-1.52 -1.24 l-2.38 0 l-1.52 1.32 l0.04 2.84 l4.78 0.02 l2.74 2.1 l0 3.82 z M97.632 16.66 l0 -1.84 l-1.22 -1.02 l-4.2 0 l0 2.76 l1.52 1.32 l2.38 0 z"></path>
    </g>
</svg>