<svg id="Cruelty_Free" enable-background="new 0 0 64 64" height="512" viewBox="0 0 64 64" width="512" xmlns="http://www.w3.org/2000/svg"><path d="m37.95673 32.38705c-.35577 0-.70913-.15385-.95192-.45072-.19952-.24159-.44952-.27284-.58173-.27524-.13221 0-.38221.03606-.57692.27043-.4399.52404-1.21635.59135-1.73317.15505-.52163-.4363-.59135-1.21274-.15625-1.73438.61298-.73317 1.51202-1.15264 2.46635-1.15264h.01683c.96154.00481 1.86058.43389 2.46875 1.17668.43029.52644.35337 1.30168-.17308 1.73197-.22838.1875-.50482.27885-.77886.27885zm-8.13942-.32092c.52644-.43149.60216-1.20673.17188-1.73197-.60938-.74399-1.50962-1.17188-2.47116-1.17668-1.04327-.08894-1.86418.41587-2.47957 1.15385-.4351.52164-.36539 1.29808.15625 1.73317.52164.4363 1.29928.36538 1.73317-.15625.19471-.23317.44351-.26923.57572-.26923.18029.02283.38582.03485.58173.27524.24399.29687.59615.45072.95313.45072.27404 0 .55048-.09135.77885-.27885zm34.18269-10.75845c0 11.79449-10.90625 28.95074-29.15387 37.2464-.89178.40625-1.86774.60821-2.84613.60821s-1.95551-.20197-2.84735-.60822c-18.24762-8.29565-29.15265-25.4519-29.15265-37.24639 0-2.29205.47473-4.52521 1.41107-6.63818.37256-.84375.8233-1.66827 1.34015-2.44952.60217-.91589 1.30646-1.78729 2.09131-2.58893 3.58295-3.67548 9.01923-5.39667 14.54449-4.60339 5.22718.75121 9.72236 3.54204 12.61298 7.76323 2.8894-4.22119 7.38702-7.01324 12.61298-7.76324 5.53125-.79083 10.96155.92908 14.54565 4.60455 3.12024 3.18634 4.84137 7.33417 4.84137 11.67548zm-2.46155 0c0-3.69348-1.47113-7.22955-4.14185-9.95428-3.03601-3.11542-7.68024-4.56732-12.43268-3.88947-5.15143.74042-9.48077 3.75726-11.87616 8.28009-.42792.8053-1.74762.8053-2.17554 0-2.39661-4.52283-6.72473-7.53967-11.875-8.28009-.77283-.11053-1.54205-.16461-2.30286-.16461-3.91589 0-7.58777 1.44226-10.13098 4.05164-.6767.6911-1.28125 1.43872-1.7981 2.22357-.4411.66827-.82574 1.3714-1.14307 2.09137-.79688 1.79803-1.20068 3.69592-1.20068 5.64178 0 9.3053 8.59735 26.31616 27.71033 35.00604 1.14423.51923 2.5108.52405 3.65503 0 19.11299-8.68988 27.71156-25.70074 27.71156-35.00604zm-14.37848 1.68231c.5.60999.72003 1.40002.61005 2.15997-.32019 2.3172-1.763 4.00317-3.80402 4.63031.25824 1.12573.39117 2.33173.38397 3.60974-.00995 2.12-.39996 4.15997-1.14996 6.03998-.25.63-.96002.92999-1.59003.69-.64001-.25-.94-.97003-.69-1.60004.63-1.59998.96002-3.32996.97003-5.13995.01001-2.92004-.79004-5.37-2.32001-7.08002-1.70001-1.90997-4.23999-2.88-7.56-2.90002h-.09003c-3.27997 0-5.79999.95001-7.51001 2.83002-1.53996 1.70001-2.35997 4.14002-2.37993 7.04999-.00848 2.77356.74146 5.37677 2.12573 7.47681.85205-2.00537 2.84174-3.41418 5.15192-3.41418h.02283l5.21759.02399c3.08655.01447 5.58173 2.53607 5.56726 5.62262-.01196 3.07214-2.51923 5.56488-5.59613 5.56488-.0072 0-.0144 0-.02161 0l-5.21875-.02399c-2.59595-.01221-4.77045-1.8045-5.38605-4.21094-.27747-.27454-.54547-.56433-.8028-.86914-2.29003-2.70002-3.54003-6.32002-3.52001-10.18006.0072-1.27203.15173-2.47351.41913-3.59503-2.03528-.65113-3.46607-2.3515-3.76917-4.67493-.09998-.76001.14001-1.54999.64001-2.16003.53003-.62 1.29004-1 2.10999-1.02997.19-.01001.37006-.01001.55005-.01001 2.08466 0 3.74951.53784 4.97827 1.15796.49786-.32458 1.03662-.59943 1.59857-.84503l.01312-2.51294c.01001-.67999.56-1.21997 1.23004-1.21997h.00995c.68005 0 1.23004.54999 1.22003 1.22998l-.00586 1.71619c1.08038-.23358 2.22955-.37079 3.45587-.38617 1.22528.0061 2.36993.14624 3.44421.38757l.00574-1.68756c.01001-.67004.56006-1.22003 1.23004-1.22003h.01001c.67999 0 1.22998.54999 1.22998 1.23999l-.013 2.48596c.56366.25677 1.10364.5434 1.6015.88013 1.34894-.6618 3.20941-1.2226 5.53149-1.09607.82002.03997 1.58003.42999 2.09999 1.05999zm-20.98571 19.9295c-.0072 1.72833 1.39063 3.1394 3.11664 3.14905l5.21631.02405h.01202c.83417 0 1.61542-.32214 2.20917-.90869s.92303-1.37256.92548-2.20673c.00958-1.72833-1.38947-3.1394-3.1178-3.14905l-5.21637-.02405c-.0036 0-.00842 0-.01202 0-1.72114.00001-3.12617 1.39423-3.13343 3.11542zm-5.39734-15.57452c.4375-.95923.99854-1.82373 1.66449-2.59247-.80792-.28064-1.77289-.49249-2.9314-.49249-.14001 0-.29004 0-.44.00995-.12 0-.23999.06-.32001.16003-.04999.04999-.09998.14001-.09003.26001.22998 1.73535 1.28534 2.3971 2.11695 2.65497zm24.5531-2.53497c.01996-.10999-.03003-.20001-.08002-.26001-.07001-.09003-.19-.15002-.32001-.15997-.17999-.01002-.34997-.01002-.52002-.01002-1.11749 0-2.05701.20062-2.84863.4693.65674.77374 1.20917 1.64038 1.6377 2.60016.83172-.25201 1.89398-.90405 2.13098-2.63946zm-15.61941 16.89718c-.67973-.00318-1.23334.54527-1.23652 1.22499-.00318.67973.54527 1.23333 1.22499 1.23652.67973.00318 1.23334-.54527 1.23652-1.22499s-.54526-1.23333-1.22499-1.23652zm4.41944.0207c-.67973-.00318-1.23333.54527-1.23652 1.22499-.00318.67973.54527 1.23334 1.22499 1.23652.67973.00318 1.23334-.54527 1.23652-1.22499.00319-.67972-.54526-1.23333-1.22499-1.23652z"/></svg>