<svg id="Capa_1" enable-background="new 0 0 512 512" height="512" viewBox="0 0 512 512" width="512" xmlns="http://www.w3.org/2000/svg"><path d="m486.395 4.395-89.554 89.554-10.605-10.605c-5.859-5.859-15.352-5.859-21.211 0l-10.615 10.61 63.636 63.636 10.611-10.615c5.859-5.859 5.859-15.352 0-21.211l-10.605-10.605 89.554-89.554c5.859-5.859 5.859-15.352 0-21.211s-15.352-5.859-21.211.001z"/><path d="m362 497c0 8.291 6.709 15 15 15h120c8.291 0 15-6.709 15-15v-45h-150z"/><path d="m490.291 335.018c13.799-11.192 21.709-27.789 21.709-48.018 0-8.291-6.709-15-15-15h-120c-8.291 0-15 6.709-15 15v3.149c0 17.549 7.881 33.853 21.606 44.751 5.42 4.321 8.203 10.562 8.408 11.821-.205 1.714-2.944 7.822-8.203 12.144-13.857 11.441-21.811 28.316-21.811 46.304v16.831h150v-16.831c0-17.988-7.954-34.863-21.826-46.304-5.244-4.321-7.983-10.43-8.188-11.616.205-1.729 2.959-7.91 8.291-12.217z"/><path d="m121.075 284.867-21.209 21.213-10.613-10.613c-5.859-5.859-15.352-5.859-21.211 0s-5.859 15.352 0 21.211l127.28 127.28c2.93 2.93 6.768 4.395 10.605 4.395s7.676-1.465 10.605-4.395c5.859-5.859 5.859-15.352 0-21.211l-10.613-10.613 21.213-21.209z"/><path d="m411.841 200.018c0-3.984-1.582-7.793-4.395-10.605l-84.858-84.858c-5.625-5.625-15.586-5.625-21.211 0l-31.822 31.826 31.822 31.822c5.859 5.859 5.859 15.352 0 21.211s-15.352 5.859-21.211 0l-31.822-31.822-21.211 21.211 31.822 31.822c5.859 5.859 5.859 15.352 0 21.211s-15.352 5.859-21.211 0l-31.82-31.82-21.211 21.211 31.82 31.82c5.859 5.859 5.859 15.352 0 21.211s-15.352 5.859-21.211 0l-31.818-31.818-21.218 21.218 106.058 106.058 159.102-159.091c2.813-2.814 4.395-6.623 4.395-10.607z"/><path d="m78.653 369.711-42.44 42.433-10.607-10.607c-5.859-5.859-15.352-5.859-21.211 0s-5.859 15.352 0 21.211l84.858 84.858c2.93 2.93 6.768 4.395 10.605 4.395s7.676-1.465 10.605-4.395c5.859-5.859 5.859-15.352 0-21.211l-10.607-10.607 42.433-42.44z"/></svg>