<?xml version="1.0" encoding="UTF-8" standalone="no"?>
<!-- Created with Inkscape (http://www.inkscape.org/) -->

<svg
   version="1.1"
   id="svg1056"
   xml:space="preserve"
   width="682.66669"
   height="682.66669"
   viewBox="0 0 682.66669 682.66669"
   xmlns="http://www.w3.org/2000/svg"
   xmlns:svg="http://www.w3.org/2000/svg"><defs
     id="defs1060"><clipPath
       clipPathUnits="userSpaceOnUse"
       id="clipPath1070"><path
         d="M 0,512 H 512 V 0 H 0 Z"
         id="path1068" /></clipPath></defs><g
     id="g1062"
     transform="matrix(1.3333333,0,0,-1.3333333,0,682.66667)"><g
       id="g1064"><g
         id="g1066"
         clip-path="url(#clipPath1070)"><g
           id="g1072"
           transform="translate(251.8125,7.5)"><path
             d="m 0,0 h -92.714 c -10.422,0 -18.871,8.429 -18.871,18.827 v 142.057 c 0,7.199 2.56,14.165 7.223,19.659 l 36.262,42.725 h 43.486 l 36.262,-42.725 c 4.664,-5.494 7.223,-12.46 7.223,-19.659 V 18.827 C 18.871,8.429 10.422,0 0,0 Z"
             style="fill:none;stroke:#000000;stroke-width:15;stroke-linecap:round;stroke-linejoin:round;stroke-miterlimit:10;stroke-dasharray:none;stroke-opacity:1"
             id="path1074" /></g><g
           id="g1076"
           transform="translate(140.2275,150.9248)"><path
             d="M 0,0 H 130.456"
             style="fill:none;stroke:#000000;stroke-width:15;stroke-linecap:round;stroke-linejoin:round;stroke-miterlimit:10;stroke-dasharray:none;stroke-opacity:1"
             id="path1078" /></g><g
           id="g1080"
           transform="translate(179.6035,106.895)"><path
             d="M 0,0 H 51.704"
             style="fill:none;stroke:#000000;stroke-width:15;stroke-linecap:round;stroke-linejoin:round;stroke-miterlimit:10;stroke-dasharray:none;stroke-opacity:1"
             id="path1082" /></g><g
           id="g1084"
           transform="translate(140.1689,66.2822)"><path
             d="M 0,0 H 130.515"
             style="fill:none;stroke:#000000;stroke-width:15;stroke-linecap:round;stroke-linejoin:round;stroke-miterlimit:10;stroke-dasharray:none;stroke-opacity:1"
             id="path1086" /></g><path
           d="m 227.198,258.313 h -43.485 v -27.546 h 43.485 z"
           style="fill:none;stroke:#000000;stroke-width:15;stroke-linecap:round;stroke-linejoin:round;stroke-miterlimit:10;stroke-dasharray:none;stroke-opacity:1"
           id="path1088" /><path
           d="m 243.267,285.859 h -75.622 v -27.546 h 75.622 z"
           style="fill:none;stroke:#000000;stroke-width:15;stroke-linecap:round;stroke-linejoin:round;stroke-miterlimit:10;stroke-dasharray:none;stroke-opacity:1"
           id="path1090" /><g
           id="g1092"
           transform="translate(9.7129,126.5957)"><path
             d="m 0,0 v 41.789 c 0,7.199 2.56,14.165 7.223,19.659 l 36.262,42.724 h 43.486 l 36.262,-42.724 c 4.663,-5.494 7.223,-12.46 7.223,-19.659 v -142.058 c 0,-10.398 -8.449,-18.827 -18.871,-18.827 H 18.872 C 8.449,-119.096 0,-110.667 0,-100.269 v 60.199"
             style="fill:none;stroke:#000000;stroke-width:15;stroke-linecap:round;stroke-linejoin:round;stroke-miterlimit:10;stroke-dasharray:none;stroke-opacity:1"
             id="path1094" /></g><g
           id="g1096"
           transform="translate(9.7129,150.9248)"><path
             d="M 0,0 H 130.456"
             style="fill:none;stroke:#000000;stroke-width:15;stroke-linecap:round;stroke-linejoin:round;stroke-miterlimit:10;stroke-dasharray:none;stroke-opacity:1"
             id="path1098" /></g><g
           id="g1100"
           transform="translate(49.0889,106.895)"><path
             d="M 0,0 H 51.705"
             style="fill:none;stroke:#000000;stroke-width:15;stroke-linecap:round;stroke-linejoin:round;stroke-miterlimit:10;stroke-dasharray:none;stroke-opacity:1"
             id="path1102" /></g><g
           id="g1104"
           transform="translate(9.7129,66.2822)"><path
             d="M 0,0 H 130.456"
             style="fill:none;stroke:#000000;stroke-width:15;stroke-linecap:round;stroke-linejoin:round;stroke-miterlimit:10;stroke-dasharray:none;stroke-opacity:1"
             id="path1106" /></g><path
           d="M 96.684,258.313 H 53.199 v -27.546 h 43.485 z"
           style="fill:none;stroke:#000000;stroke-width:15;stroke-linecap:round;stroke-linejoin:round;stroke-miterlimit:10;stroke-dasharray:none;stroke-opacity:1"
           id="path1108" /><path
           d="M 112.752,285.859 H 37.13 v -27.546 h 75.622 z"
           style="fill:none;stroke:#000000;stroke-width:15;stroke-linecap:round;stroke-linejoin:round;stroke-miterlimit:10;stroke-dasharray:none;stroke-opacity:1"
           id="path1110" /><g
           id="g1112"
           transform="translate(178.8262,285.8594)"><path
             d="m 0,0 -46.818,53.88 c -5.526,6.36 -4.865,16.022 1.476,21.581 L 14.1,127.574 c 6.34,5.559 15.96,4.911 21.485,-1.448 L 217.394,-83.105 134.989,-155.351 48.087,-55.34"
             style="fill:none;stroke:#000000;stroke-width:15;stroke-linecap:round;stroke-linejoin:round;stroke-miterlimit:10;stroke-dasharray:none;stroke-opacity:1"
             id="path1114" /></g><g
           id="g1116"
           transform="translate(123.5303,418.4985)"><path
             d="m 0,0 14.34,12.572 c 6.341,5.559 15.96,4.911 21.485,-1.447 l 22.5,-25.895 -37.302,-32.704 -22.5,25.894 C -7.002,-15.221 -6.341,-5.559 0,0 Z"
             style="fill:none;stroke:#000000;stroke-width:15;stroke-linecap:round;stroke-linejoin:round;stroke-miterlimit:10;stroke-dasharray:none;stroke-opacity:1"
             id="path1118" /></g><g
           id="g1120"
           transform="translate(130.7002,424.7842)"><path
             d="M 0,0 -69.269,79.716"
             style="fill:none;stroke:#000000;stroke-width:15;stroke-linecap:round;stroke-linejoin:round;stroke-miterlimit:10;stroke-dasharray:none;stroke-opacity:1"
             id="path1122" /></g><g
           id="g1124"
           transform="translate(417.542,35.1396)"><path
             d="m 0,0 58.729,51.489 c 6.538,5.731 16.456,5.063 22.152,-1.493 5.697,-6.556 5.015,-16.518 -1.523,-22.25 L 20.629,-23.743 C 14.092,-29.474 4.174,-28.806 -1.522,-22.25 -7.22,-15.694 -6.538,-5.732 0,0 Z"
             style="fill:none;stroke:#000000;stroke-width:15;stroke-linecap:round;stroke-linejoin:round;stroke-miterlimit:10;stroke-dasharray:none;stroke-opacity:1"
             id="path1126" /></g><g
           id="g1128"
           transform="translate(395.5254,160.3169)"><path
             d="m 0,0 -80.008,-70.144 c -6.537,-5.731 -16.454,-5.063 -22.151,1.493 -5.696,6.556 -5.015,16.518 1.522,22.25 L 19.623,59.032 c 6.537,5.731 16.454,5.063 22.151,-1.493 v 0 c 5.697,-6.557 5.015,-16.518 -1.522,-22.25 L 28.229,24.749"
             style="fill:none;stroke:#000000;stroke-width:15;stroke-linecap:round;stroke-linejoin:round;stroke-miterlimit:10;stroke-dasharray:none;stroke-opacity:1"
             id="path1130" /></g><g
           id="g1132"
           transform="translate(365.8955,237.6519)"><path
             d="m 0,0 -17.519,20.162 -82.404,-72.245 17.519,-20.162 z"
             style="fill:none;stroke:#000000;stroke-width:15;stroke-linecap:round;stroke-linejoin:round;stroke-miterlimit:10;stroke-dasharray:none;stroke-opacity:1"
             id="path1134" /></g><g
           id="g1136"
           transform="translate(230.9023,387.9248)"><path
             d="M 0,0 -12.484,-10.946"
             style="fill:none;stroke:#000000;stroke-width:15;stroke-linecap:round;stroke-linejoin:round;stroke-miterlimit:10;stroke-dasharray:none;stroke-opacity:1"
             id="path1138" /></g><g
           id="g1140"
           transform="translate(258.6064,356.0425)"><path
             d="M 0,0 -24.97,-21.892"
             style="fill:none;stroke:#000000;stroke-width:15;stroke-linecap:round;stroke-linejoin:round;stroke-miterlimit:10;stroke-dasharray:none;stroke-opacity:1"
             id="path1142" /></g><g
           id="g1144"
           transform="translate(286.3096,324.1602)"><path
             d="M 0,0 -12.484,-10.946"
             style="fill:none;stroke:#000000;stroke-width:15;stroke-linecap:round;stroke-linejoin:round;stroke-miterlimit:10;stroke-dasharray:none;stroke-opacity:1"
             id="path1146" /></g><g
           id="g1148"
           transform="translate(314.0137,292.2778)"><path
             d="M 0,0 -24.97,-21.892"
             style="fill:none;stroke:#000000;stroke-width:15;stroke-linecap:round;stroke-linejoin:round;stroke-miterlimit:10;stroke-dasharray:none;stroke-opacity:1"
             id="path1150" /></g><g
           id="g1152"
           transform="translate(355.0176,166.6313)"><path
             d="M 0,0 -30.324,34.898"
             style="fill:none;stroke:#000000;stroke-width:15;stroke-linecap:round;stroke-linejoin:round;stroke-miterlimit:10;stroke-dasharray:none;stroke-opacity:1"
             id="path1154" /></g><g
           id="g1156"
           transform="translate(375.6475,142.8896)"><path
             d="M 0,0 71.258,-82.006"
             style="fill:none;stroke:#000000;stroke-width:15;stroke-linecap:round;stroke-linejoin:round;stroke-miterlimit:10;stroke-dasharray:none;stroke-opacity:1"
             id="path1158" /></g></g></g></g></svg>
